mtllib model_25.mtl
o model_25
v -7946.35986328125 -0.013562003150582314 -19400.05078125 
v -7946.35986328125 0.0048811836168169975 10400.0087890625 
v 33853.65625 -0.013562003150582314 -19400.05078125 
v 33853.65625 0.0048811836168169975 10400.0087890625 
v -7946.35986328125 -2000.0107421875 -19400.05078125 
v 33853.65625 -2000.0107421875 -19400.05078125 
v -7946.35986328125 -1999.9923095703125 10400.009765625 
v 33853.65625 -1999.9923095703125 10400.009765625 
v 33853.65625 -1999.9923095703125 10400.009765625 
v 33853.65625 0.0048811836168169975 10400.0087890625 
v -7946.35986328125 -1999.9923095703125 10400.009765625 
v -7946.35986328125 0.0048811836168169975 10400.0087890625 
v 33853.65625 -2000.0107421875 -19400.05078125 
v 33853.65625 -0.013562003150582314 -19400.05078125 
v 33853.65625 -1999.9923095703125 10400.009765625 
v 33853.65625 0.0048811836168169975 10400.0087890625 
v -7946.35986328125 -2000.0107421875 -19400.05078125 
v -7946.35986328125 -0.013562003150582314 -19400.05078125 
v 33853.65625 -2000.0107421875 -19400.05078125 
v 33853.65625 -0.013562003150582314 -19400.05078125 
v -7946.35986328125 -1999.9923095703125 10400.009765625 
v -7946.35986328125 0.0048811836168169975 10400.0087890625 
v -7946.35986328125 -2000.0107421875 -19400.05078125 
v -7946.35986328125 -0.013562003150582314 -19400.05078125 
vn 0 0.9999994039535522 -6.188972179188568e-7 
vn 0 0.9999994039535522 -6.188972179188568e-7 
vn 0 0.9999994039535522 -6.188972179188568e-7 
vn 0 0.9999994039535522 -6.188972179188568e-7 
vn -2.0682311115474694e-13 -0.9999994039535522 6.188972179188568e-7 
vn -2.0682311115474694e-13 -0.9999994039535522 6.188972179188568e-7 
vn -2.0682311115474694e-13 -0.9999994039535522 6.188972179188568e-7 
vn -2.0682311115474694e-13 -0.9999994039535522 6.188972179188568e-7 
vn 3.097898456858039e-13 0.002185311634093523 0.9999970197677612 
vn 3.097898456858039e-13 0.002185311634093523 0.9999970197677612 
vn 3.097898456858039e-13 0.002185311634093523 0.9999970197677612 
vn 3.097898456858039e-13 0.002185311634093523 0.9999970197677612 
vn 0.999997615814209 0.002184692770242691 -1.352101208773604e-9 
vn 0.999997615814209 0.002184692770242691 -1.352101208773604e-9 
vn 0.999997615814209 0.002184692770242691 -1.352101208773604e-9 
vn 0.999997615814209 0.002184692770242691 -1.352101208773604e-9 
vn -1.0341130485562108e-13 0.002184073906391859 -0.9999970197677612 
vn -1.0341130485562108e-13 0.002184073906391859 -0.9999970197677612 
vn -1.0341130485562108e-13 0.002184073906391859 -0.9999970197677612 
vn -1.0341130485562108e-13 0.002184073906391859 -0.9999970197677612 
vn -0.999997615814209 0.002184692770242691 -1.3518943742241163e-9 
vn -0.999997615814209 0.002184692770242691 -1.3518943742241163e-9 
vn -0.999997615814209 0.002184692770242691 -1.3518943742241163e-9 
vn -0.999997615814209 0.002184692770242691 -1.3518943742241163e-9 
vt -15.879799842834473 12.03398609161377 
vt -15.879799842834473 -11.320899963378906 
vt 16.879823684692383 12.03398609161377 
vt 16.879823684692383 -11.320899963378906 
vt -15.879799842834473 -11.320899963378906 
vt 16.879823684692383 -11.320899963378906 
vt -15.879799842834473 12.03398609161377 
vt 16.879823684692383 12.03398609161377 
vt 16.879823684692383 -9.388484001159668 
vt 16.879823684692383 -7.820990085601807 
vt -15.879799842834473 -9.388484001159668 
vt -15.879799842834473 -7.820990085601807 
vt 7.482404708862305 -5.954858779907227 
vt 7.482404708862305 -4.387365341186523 
vt -15.872551918029785 -5.954858779907227 
vt -15.872551918029785 -4.387365341186523 
vt 16.879823684692383 -11.242498397827148 
vt 16.879823684692383 -9.675004959106445 
vt -15.879799842834473 -11.242498397827148 
vt -15.879799842834473 -9.675004959106445 
vt 7.482404708862305 -7.671671390533447 
vt 7.482404708862305 -6.104177951812744 
vt -15.872551918029785 -7.671671390533447 
vt -15.872551918029785 -6.104177951812744 
s on 
f 1/1/1 2/2/2 3/3/3 
f 2/2/2 4/4/4 3/3/3 
f 3/3/3 4/4/4 4/4/4 
f 4/4/4 5/5/5 4/4/4 
f 4/4/4 5/5/5 5/5/5 
f 5/5/5 6/6/6 5/5/5 
f 5/5/5 6/6/6 7/7/7 
f 6/6/6 8/8/8 7/7/7 
f 7/7/7 8/8/8 8/8/8 
f 8/8/8 9/9/9 8/8/8 
f 8/8/8 9/9/9 9/9/9 
f 9/9/9 10/10/10 9/9/9 
f 9/9/9 10/10/10 11/11/11 
f 10/10/10 12/12/12 11/11/11 
f 11/11/11 12/12/12 12/12/12 
f 12/12/12 13/13/13 12/12/12 
f 12/12/12 13/13/13 13/13/13 
f 13/13/13 14/14/14 13/13/13 
f 13/13/13 14/14/14 15/15/15 
f 14/14/14 16/16/16 15/15/15 
f 15/15/15 16/16/16 16/16/16 
f 16/16/16 17/17/17 16/16/16 
f 16/16/16 17/17/17 17/17/17 
f 17/17/17 18/18/18 17/17/17 
f 17/17/17 18/18/18 19/19/19 
f 18/18/18 20/20/20 19/19/19 
f 19/19/19 20/20/20 20/20/20 
f 20/20/20 21/21/21 20/20/20 
f 20/20/20 21/21/21 21/21/21 
f 21/21/21 22/22/22 21/21/21 
f 21/21/21 22/22/22 23/23/23 
f 22/22/22 24/24/24 23/23/23 

