mtllib model_24.mtl
o model_24
v 17.517757415771484 14.697799682617188 2.912529945373535 
v 17.517757415771484 14.697799682617188 3.922606945037842 
v 16.582063674926758 15.057483673095703 2.912529945373535 
v 16.582063674926758 15.057483673095703 3.922606945037842 
v 15.624093055725098 15.42573070526123 2.912529945373535 
v 15.624093055725098 15.42573070526123 3.922606945037842 
v 14.688400268554688 15.78541374206543 2.912529945373535 
v 14.688400268554688 15.78541374206543 3.922606945037842 
v 17.517757415771484 14.697799682617188 4.932683944702148 
v 16.582063674926758 15.057483673095703 4.932683944702148 
v 15.624093055725098 15.42573070526123 4.932683944702148 
v 14.688400268554688 15.78541374206543 4.932683944702148 
v 17.517757415771484 14.697799682617188 5.942760467529297 
v 16.582063674926758 15.057483673095703 5.942760467529297 
v 15.624093055725098 15.42573070526123 5.942760467529297 
v 14.688400268554688 15.78541374206543 5.942760467529297 
v 17.517757415771484 14.697799682617188 7.000936508178711 
v 16.582063674926758 15.057483673095703 7.000936508178711 
v 15.624093055725098 15.42573070526123 7.000936508178711 
v 14.688400268554688 15.78541374206543 7.000936508178711 
v 17.517757415771484 14.697799682617188 8.01101303100586 
v 16.582063674926758 15.057483673095703 8.01101303100586 
v 15.624093055725098 15.42573070526123 8.01101303100586 
v 14.688400268554688 15.78541374206543 8.01101303100586 
v 17.517757415771484 14.697799682617188 9.021090507507324 
v 16.582063674926758 15.057483673095703 9.021090507507324 
v 15.624093055725098 15.42573070526123 9.021090507507324 
v 14.688400268554688 15.78541374206543 9.021090507507324 
vn -0.36165499687194824 -0.9323094487190247 0.002184694167226553 
vn -0.36165499687194824 -0.9323094487190247 0.002184694167226553 
vn -0.36165499687194824 -0.9323094487190247 0.002184694167226553 
vn -0.36165499687194824 -0.9323094487190247 0.002184694167226553 
vn -0.36165499687194824 -0.9323094487190247 0.002184694167226553 
vn -0.36165499687194824 -0.9323094487190247 0.002184694167226553 
vn -0.36165499687194824 -0.9323094487190247 0.002184694167226553 
vn -0.36165499687194824 -0.9323094487190247 0.002184694167226553 
vn -0.36165499687194824 -0.9323094487190247 0.002184694167226553 
vn -0.36165499687194824 -0.9323094487190247 0.002184694167226553 
vn -0.36165499687194824 -0.9323094487190247 0.002184694167226553 
vn -0.36165499687194824 -0.9323094487190247 0.002184694167226553 
vn -0.36165499687194824 -0.9323094487190247 0.002184694167226553 
vn -0.36165499687194824 -0.9323094487190247 0.002184694167226553 
vn -0.36165499687194824 -0.9323094487190247 0.002184694167226553 
vn -0.36165499687194824 -0.9323094487190247 0.002184694167226553 
vn -0.36165499687194824 -0.9323094487190247 0.002184694167226553 
vn -0.36165499687194824 -0.9323094487190247 0.002184694167226553 
vn -0.36165499687194824 -0.9323094487190247 0.002184694167226553 
vn -0.36165499687194824 -0.9323094487190247 0.002184694167226553 
vn -0.36165499687194824 -0.9323094487190247 0.002184694167226553 
vn -0.36165499687194824 -0.9323094487190247 0.002184694167226553 
vn -0.36165499687194824 -0.9323094487190247 0.002184694167226553 
vn -0.36165499687194824 -0.9323094487190247 0.002184694167226553 
vn -0.36165499687194824 -0.9323094487190247 0.002184694167226553 
vn -0.36165499687194824 -0.9323094487190247 0.002184694167226553 
vn -0.36165499687194824 -0.9323094487190247 0.002184694167226553 
vn -0.36165499687194824 -0.9323094487190247 0.002184694167226553 
vt 0.9896647930145264 0.008640999905765057 
vt 0.9896647930145264 0.1724068820476532 
vt 0.6574510931968689 0.008640999905765057 
vt 0.6574510931968689 0.1724068820476532 
vt 0.32511571049690247 0.008640999905765057 
vt 0.32511571049690247 0.1724068820476532 
vt -0.007098000030964613 0.008640999905765057 
vt -0.007098000030964613 0.1724068820476532 
vt 0.9896647930145264 0.33617275953292847 
vt 0.6574510931968689 0.33617275953292847 
vt 0.32511571049690247 0.33617275953292847 
vt -0.007098000030964613 0.33617275953292847 
vt 0.9896647930145264 0.5000585913658142 
vt 0.6574510931968689 0.5000585913658142 
vt 0.32511571049690247 0.5000585913658142 
vt -0.007098000030964613 0.5000585913658142 
vt 0.9896647930145264 0.6638244986534119 
vt 0.6574510931968689 0.6638244986534119 
vt 0.32511571049690247 0.6638244986534119 
vt -0.007098000030964613 0.6638244986534119 
vt 0.9896647930145264 0.8275903463363647 
vt 0.6574510931968689 0.8275903463363647 
vt 0.32511571049690247 0.8275903463363647 
vt -0.007098000030964613 0.8275903463363647 
vt 0.9896647930145264 0.9913562536239624 
vt 0.6574510931968689 0.9913562536239624 
vt 0.32511571049690247 0.9913562536239624 
vt -0.007098000030964613 0.9913562536239624 
s on 
f 1/1/1 2/2/2 3/3/3 
f 2/2/2 4/4/4 3/3/3 
f 3/3/3 4/4/4 5/5/5 
f 4/4/4 6/6/6 5/5/5 
f 5/5/5 6/6/6 7/7/7 
f 6/6/6 8/8/8 7/7/7 
f 7/7/7 8/8/8 8/8/8 
f 8/8/8 2/2/2 8/8/8 
f 8/8/8 2/2/2 2/2/2 
f 2/2/2 9/9/9 2/2/2 
f 2/2/2 9/9/9 4/4/4 
f 9/9/9 10/10/10 4/4/4 
f 4/4/4 10/10/10 6/6/6 
f 10/10/10 11/11/11 6/6/6 
f 6/6/6 11/11/11 8/8/8 
f 11/11/11 12/12/12 8/8/8 
f 8/8/8 12/12/12 12/12/12 
f 12/12/12 9/9/9 12/12/12 
f 12/12/12 9/9/9 9/9/9 
f 9/9/9 13/13/13 9/9/9 
f 9/9/9 13/13/13 10/10/10 
f 13/13/13 14/14/14 10/10/10 
f 10/10/10 14/14/14 11/11/11 
f 14/14/14 15/15/15 11/11/11 
f 11/11/11 15/15/15 12/12/12 
f 15/15/15 16/16/16 12/12/12 
f 12/12/12 16/16/16 16/16/16 
f 16/16/16 13/13/13 16/16/16 
f 16/16/16 13/13/13 13/13/13 
f 13/13/13 17/17/17 13/13/13 
f 13/13/13 17/17/17 14/14/14 
f 17/17/17 18/18/18 14/14/14 
f 14/14/14 18/18/18 15/15/15 
f 18/18/18 19/19/19 15/15/15 
f 15/15/15 19/19/19 16/16/16 
f 19/19/19 20/20/20 16/16/16 
f 16/16/16 20/20/20 20/20/20 
f 20/20/20 17/17/17 20/20/20 
f 20/20/20 17/17/17 17/17/17 
f 17/17/17 21/21/21 17/17/17 
f 17/17/17 21/21/21 18/18/18 
f 21/21/21 22/22/22 18/18/18 
f 18/18/18 22/22/22 19/19/19 
f 22/22/22 23/23/23 19/19/19 
f 19/19/19 23/23/23 20/20/20 
f 23/23/23 24/24/24 20/20/20 
f 20/20/20 24/24/24 24/24/24 
f 24/24/24 21/21/21 24/24/24 
f 24/24/24 21/21/21 21/21/21 
f 21/21/21 25/25/25 21/21/21 
f 21/21/21 25/25/25 22/22/22 
f 25/25/25 26/26/26 22/22/22 
f 22/22/22 26/26/26 23/23/23 
f 26/26/26 27/27/27 23/23/23 
f 23/23/23 27/27/27 24/24/24 
f 27/27/27 28/28/28 24/24/24 

