mtllib model_53.mtl
o model_53
v 12.353540420532227 17.236385345458984 8.209968566894531 
v 12.340956687927246 17.268564224243164 8.609126091003418 
v 12.420050621032715 17.155040740966797 8.2136812210083 
v 12.431735038757324 17.15772247314453 8.614076614379883 
v 12.340956687927246 17.268564224243164 8.609126091003418 
v 12.353540420532227 17.236385345458984 8.209968566894531 
v 12.199846267700195 17.245323181152344 8.59984302520752 
v 12.249279975891113 17.21940040588379 8.203161239624023 
v 12.353540420532227 17.236385345458984 8.209968566894531 
v 12.420050621032715 17.155040740966797 8.2136812210083 
v 12.249279975891113 17.21940040588379 8.203161239624023 
v 12.21242904663086 17.12017822265625 8.199860572814941 
v 12.279838562011719 17.038833618164062 8.203573226928711 
v 12.383200645446777 17.056711196899414 8.210380554199219 
v 10.773456573486328 17.533157348632812 8.19655990600586 
v 10.669196128845215 17.51617431640625 8.201923370361328 
v 10.811205863952637 17.631486892700195 8.201923370361328 
v 10.602685928344727 17.59662437438965 8.21285629272461 
v 10.640435218811035 17.69584846496582 8.218219757080078 
v 12.340956687927246 17.268564224243164 8.609126091003418 
v 12.199846267700195 17.245323181152344 8.59984302520752 
v 12.431735038757324 17.15772247314453 8.614076614379883 
v 12.149513244628906 17.111238479614258 8.595511436462402 
v 12.240291595458984 17.000394821166992 8.600461959838867 
v 10.981977462768555 16.15387535095215 8.589529037475586 
v 10.840866088867188 16.130634307861328 8.599018096923828 
v 11.073655128479004 16.043031692504883 8.594686508178711 
v 10.79143238067627 15.997443199157715 8.613664627075195 
v 10.882210731506348 15.88659954071045 8.61861515045166 
v 10.882210731506348 15.88659954071045 8.61861515045166 
v 10.875020980834961 15.88659954071045 8.218013763427734 
v 11.023322105407715 15.909841537475586 8.609126091003418 
v 10.978382110595703 15.903584480285645 8.211206436157227 
v 10.79143238067627 15.997443199157715 8.613664627075195 
v 10.807611465454102 15.967945098876953 8.214300155639648 
v 10.882210731506348 15.88659954071045 8.61861515045166 
v 10.875020980834961 15.88659954071045 8.218013763427734 
v 10.844461441040039 16.066272735595703 8.203573226928711 
v 10.840866088867188 16.130634307861328 8.599018096923828 
v 10.947823524475098 16.0832576751709 8.196765899658203 
v 10.981977462768555 16.15387535095215 8.589529037475586 
v 11.073655128479004 16.043031692504883 8.594686508178711 
v 11.015233039855957 16.00191307067871 8.200479507446289 
v 10.981977462768555 16.15387535095215 8.589529037475586 
v 10.947823524475098 16.0832576751709 8.196765899658203 
v 10.822890281677246 17.472373962402344 8.589323043823242 
v 10.87412166595459 17.60645866394043 8.596749305725098 
v 10.68267822265625 17.44913101196289 8.596749305725098 
v 10.591899871826172 17.55908203125 8.611394882202148 
v 10.642232894897461 17.693166732788086 8.618821144104004 
v 10.783343315124512 17.716407775878906 8.611394882202148 
v 10.807611465454102 15.967945098876953 8.214300155639648 
v 10.79143238067627 15.997443199157715 8.613664627075195 
v 10.844461441040039 16.066272735595703 8.203573226928711 
v 10.840866088867188 16.130634307861328 8.599018096923828 
v 12.383200645446777 17.056711196899414 8.210380554199219 
v 12.381402969360352 17.023637771606445 8.609745025634766 
v 12.279838562011719 17.038833618164062 8.203573226928711 
v 12.240291595458984 17.000394821166992 8.600461959838867 
v 10.68267822265625 17.44913101196289 8.596749305725098 
v 10.669196128845215 17.51617431640625 8.201923370361328 
v 10.822890281677246 17.472373962402344 8.589323043823242 
v 10.773456573486328 17.533157348632812 8.19655990600586 
v 10.669196128845215 17.51617431640625 8.201923370361328 
v 10.68267822265625 17.44913101196289 8.596749305725098 
v 10.602685928344727 17.59662437438965 8.21285629272461 
v 10.591899871826172 17.55908203125 8.611394882202148 
v 10.783343315124512 17.716407775878906 8.611394882202148 
v 10.744695663452148 17.712831497192383 8.21285629272461 
v 10.642232894897461 17.693166732788086 8.618821144104004 
v 10.640435218811035 17.69584846496582 8.218219757080078 
v 10.87412166595459 17.60645866394043 8.596749305725098 
v 10.811205863952637 17.631486892700195 8.201923370361328 
v 10.783343315124512 17.716407775878906 8.611394882202148 
v 10.744695663452148 17.712831497192383 8.21285629272461 
v 12.21242904663086 17.12017822265625 8.199860572814941 
v 12.149513244628906 17.111238479614258 8.595511436462402 
v 12.249279975891113 17.21940040588379 8.203161239624023 
v 12.199846267700195 17.245323181152344 8.59984302520752 
v 10.811205863952637 17.631486892700195 8.201923370361328 
v 10.87412166595459 17.60645866394043 8.596749305725098 
v 10.773456573486328 17.533157348632812 8.19655990600586 
v 10.822890281677246 17.472373962402344 8.589323043823242 
v 10.602685928344727 17.59662437438965 8.21285629272461 
v 10.591899871826172 17.55908203125 8.611394882202148 
v 10.640435218811035 17.69584846496582 8.218219757080078 
v 10.642232894897461 17.693166732788086 8.618821144104004 
v 12.149513244628906 17.111238479614258 8.595511436462402 
v 12.21242904663086 17.12017822265625 8.199860572814941 
v 12.240291595458984 17.000394821166992 8.600461959838867 
v 12.279838562011719 17.038833618164062 8.203573226928711 
v 12.420050621032715 17.155040740966797 8.2136812210083 
v 12.431735038757324 17.15772247314453 8.614076614379883 
v 12.383200645446777 17.056711196899414 8.210380554199219 
v 12.381402969360352 17.023637771606445 8.609745025634766 
v 10.947823524475098 16.0832576751709 8.196765899658203 
v 11.015233039855957 16.00191307067871 8.200479507446289 
v 10.844461441040039 16.066272735595703 8.203573226928711 
v 10.807611465454102 15.967945098876953 8.214300155639648 
v 10.875020980834961 15.88659954071045 8.218013763427734 
v 10.978382110595703 15.903584480285645 8.211206436157227 
v 11.015233039855957 16.00191307067871 8.200479507446289 
v 11.073655128479004 16.043031692504883 8.594686508178711 
v 10.978382110595703 15.903584480285645 8.211206436157227 
v 11.023322105407715 15.909841537475586 8.609126091003418 
v 12.381402969360352 17.023637771606445 8.609745025634766 
v 10.744695663452148 17.712831497192383 8.21285629272461 
v 11.023322105407715 15.909841537475586 8.609126091003418 
vn 0.772698700428009 0.6341374516487122 -0.028397228568792343 
vn 0.772698700428009 0.6341374516487122 -0.028397228568792343 
vn 0.772698700428009 0.6341374516487122 -0.028397228568792343 
vn 0.772698700428009 0.6341374516487122 -0.028397228568792343 
vn -0.15605345368385315 0.9840758442878723 -0.08510008454322815 
vn -0.15605345368385315 0.9840758442878723 -0.08510008454322815 
vn -0.15605345368385315 0.9840758442878723 -0.08510008454322815 
vn -0.15605345368385315 0.9840758442878723 -0.08510008454322815 
vn 0.0650511160492897 0.007603385020047426 -0.9978529810905457 
vn 0.0650511160492897 0.007603385020047426 -0.9978529810905457 
vn 0.0650511160492897 0.007603385020047426 -0.9978529810905457 
vn 0.0650511160492897 0.007603385020047426 -0.9978529810905457 
vn 0.0650511160492897 0.007603385020047426 -0.9978529810905457 
vn 0.0650511160492897 0.007603385020047426 -0.9978529810905457 
vn -0.06483971327543259 0.0821724608540535 -0.9945066571235657 
vn -0.06483971327543259 0.0821724608540535 -0.9945066571235657 
vn -0.06483971327543259 0.0821724608540535 -0.9945066571235657 
vn -0.06483971327543259 0.0821724608540535 -0.9945066571235657 
vn -0.06483971327543259 0.0821724608540535 -0.9945066571235657 
vn -0.06508214771747589 -0.0073329973965883255 0.9978529810905457 
vn -0.06508214771747589 -0.0073329973965883255 0.9978529810905457 
vn -0.06508214771747589 -0.0073329973965883255 0.9978529810905457 
vn -0.06508214771747589 -0.0073329973965883255 0.9978529810905457 
vn -0.06508214771747589 -0.0073329973965883255 0.9978529810905457 
vn 0.05016457661986351 0.09186956286430359 0.9945066571235657 
vn 0.05016457661986351 0.09186956286430359 0.9945066571235657 
vn 0.05016457661986351 0.09186956286430359 0.9945066571235657 
vn 0.05016457661986351 0.09186956286430359 0.9945066571235657 
vn 0.05016457661986351 0.09186956286430359 0.9945066571235657 
vn 0.16537824273109436 -0.986227810382843 -0.002184694167226553 
vn 0.16537824273109436 -0.986227810382843 -0.002184694167226553 
vn 0.16537824273109436 -0.986227810382843 -0.002184694167226553 
vn 0.15792569518089294 -0.9874485731124878 -0.002184694167226553 
vn -0.7729200720787048 -0.6343191266059875 0.0152922747656703 
vn -0.7729200720787048 -0.6343191266059875 0.0152922747656703 
vn -0.7729200720787048 -0.6343191266059875 0.0152922747656703 
vn -0.7729200720787048 -0.6343191266059875 0.0152922747656703 
vn -0.16896657645702362 0.9727437496185303 -0.15880759060382843 
vn -0.16896657645702362 0.9727437496185303 -0.15880759060382843 
vn -0.16896657645702362 0.9727437496185303 -0.15880759060382843 
vn -0.16896657645702362 0.9727437496185303 -0.15880759060382843 
vn 0.7637008428573608 0.6211050748825073 -0.1760382205247879 
vn 0.7637008428573608 0.6211050748825073 -0.1760382205247879 
vn 0.7637008428573608 0.6211050748825073 -0.1760382205247879 
vn 0.7637008428573608 0.6211050748825073 -0.1760382205247879 
vn 0.06854644417762756 -0.07910680770874023 0.9945066571235657 
vn 0.06854644417762756 -0.07910680770874023 0.9945066571235657 
vn 0.06854644417762756 -0.07910680770874023 0.9945066571235657 
vn 0.06854644417762756 -0.07910680770874023 0.9945066571235657 
vn 0.06854644417762756 -0.07910680770874023 0.9945066571235657 
vn 0.06854644417762756 -0.07910680770874023 0.9945066571235657 
vn -0.9369440078735352 0.3436964452266693 -0.0633138045668602 
vn -0.9369440078735352 0.3436964452266693 -0.0633138045668602 
vn -0.9369440078735352 0.3436964452266693 -0.0633138045668602 
vn -0.9369440078735352 0.3436964452266693 -0.0633138045668602 
vn 0.16729174554347992 -0.9825953245162964 -0.08074574917554855 
vn 0.16729174554347992 -0.9825953245162964 -0.08074574917554855 
vn 0.16729174554347992 -0.9825953245162964 -0.08074574917554855 
vn 0.16729174554347992 -0.9825953245162964 -0.08074574917554855 
vn 0.15038138628005981 -0.9735976457595825 -0.17173540592193604 
vn 0.15038138628005981 -0.9735976457595825 -0.17173540592193604 
vn 0.15038138628005981 -0.9735976457595825 -0.17173540592193604 
vn 0.15038138628005981 -0.9735976457595825 -0.17173540592193604 
vn -0.7760721445083618 -0.6254535913467407 -0.08074574917554855 
vn -0.7760721445083618 -0.6254535913467407 -0.08074574917554855 
vn -0.7760721445083618 -0.6254535913467407 -0.08074574917554855 
vn -0.7760721445083618 -0.6254535913467407 -0.08074574917554855 
vn -0.16537508368492126 0.986208975315094 0.006554040592163801 
vn -0.16537508368492126 0.986208975315094 0.006554040592163801 
vn -0.16537508368492126 0.986208975315094 0.006554040592163801 
vn -0.16537508368492126 0.986208975315094 0.006554040592163801 
vn 0.7640823721885681 0.6400455236434937 -0.08074574917554855 
vn 0.7640823721885681 0.6400455236434937 -0.08074574917554855 
vn 0.7640823721885681 0.6400455236434937 -0.08074574917554855 
vn 0.7640823721885681 0.6400455236434937 -0.08074574917554855 
vn -0.9249320030212402 0.35450875759124756 -0.1372016966342926 
vn -0.9249320030212402 0.35450875759124756 -0.1372016966342926 
vn -0.9249320030212402 0.35450875759124756 -0.1372016966342926 
vn -0.9249320030212402 0.35450875759124756 -0.1372016966342926 
vn 0.9245789051055908 -0.34008944034576416 -0.17173540592193604 
vn 0.9245789051055908 -0.34008944034576416 -0.17173540592193604 
vn 0.9245789051055908 -0.34008944034576416 -0.17173540592193604 
vn 0.9245789051055908 -0.34008944034576416 -0.17173540592193604 
vn -0.9349961876869202 0.354597270488739 0.006554040592163801 
vn -0.9349961876869202 0.354597270488739 0.006554040592163801 
vn -0.9349961876869202 0.354597270488739 0.006554040592163801 
vn -0.9349961876869202 0.354597270488739 0.006554040592163801 
vn -0.7614904642105103 -0.6334887146949768 -0.1372016966342926 
vn -0.7614904642105103 -0.6334887146949768 -0.1372016966342926 
vn -0.7614904642105103 -0.6334887146949768 -0.1372016966342926 
vn -0.7614904642105103 -0.6334887146949768 -0.1372016966342926 
vn 0.937396764755249 -0.34743332862854004 -0.024029340595006943 
vn 0.937396764755249 -0.34743332862854004 -0.024029340595006943 
vn 0.937396764755249 -0.34743332862854004 -0.024029340595006943 
vn 0.937396764755249 -0.34743332862854004 -0.024029340595006943 
vn -0.05233665555715561 -0.09064974635839462 -0.9945066571235657 
vn -0.05233665555715561 -0.09064974635839462 -0.9945066571235657 
vn -0.05233665555715561 -0.09064974635839462 -0.9945066571235657 
vn -0.05233665555715561 -0.09064974635839462 -0.9945066571235657 
vn -0.05233665555715561 -0.09064974635839462 -0.9945066571235657 
vn -0.05233665555715561 -0.09064974635839462 -0.9945066571235657 
vn 0.9298819899559021 -0.3545215427875519 -0.0981530249118805 
vn 0.9298819899559021 -0.3545215427875519 -0.0981530249118805 
vn 0.9298819899559021 -0.3545215427875519 -0.0981530249118805 
vn 0.9298819899559021 -0.3545215427875519 -0.0981530249118805 
vn -0.06508214771747589 -0.0073329973965883255 0.9978529810905457 
vn -0.06483971327543259 0.0821724608540535 -0.9945066571235657 
vn 0.05016457661986351 0.09186956286430359 0.9945066571235657 
s on 
f 1//1 2//2 3//3 
f 2//2 4//4 3//3 
f 3//3 4//4 4//4 
f 4//4 5//5 4//4 
f 4//4 5//5 5//5 
f 5//5 6//6 5//5 
f 5//5 6//6 7//7 
f 6//6 8//8 7//7 
f 7//7 8//8 8//8 
f 8//8 9//9 8//8 
f 8//8 9//9 9//9 
f 9//9 10//10 9//9 
f 9//9 10//10 11//11 
f 10//10 12//12 11//11 
f 11//11 12//12 12//12 
f 12//12 10//10 12//12 
f 12//12 10//10 13//13 
f 10//10 14//14 13//13 
f 13//13 14//14 14//14 
f 14//14 15//15 14//14 
f 14//14 15//15 15//15 
f 15//15 16//16 15//15 
f 15//15 16//16 17//17 
f 16//16 18//18 17//17 
f 17//17 18//18 19//19 
f 18//18 19//19 19//19 
f 19//19 19//19 20//20 
f 19//19 20//20 20//20 
f 20//20 20//20 20//20 
f 20//20 21//21 20//20 
f 20//20 21//21 22//22 
f 21//21 23//23 22//22 
f 22//22 23//23 24//24 
f 23//23 24//24 24//24 
f 24//24 24//24 25//25 
f 24//24 25//25 25//25 
f 25//25 25//25 25//25 
f 25//25 26//26 25//25 
f 25//25 26//26 27//27 
f 26//26 28//28 27//27 
f 27//27 28//28 29//29 
f 28//28 29//29 29//29 
f 29//29 29//29 30//30 
f 29//29 30//30 30//30 
f 30//30 30//30 30//30 
f 30//30 31//31 30//30 
f 30//30 31//31 32//32 
f 31//31 33//33 32//32 
f 32//32 33//33 33//33 
f 33//33 34//34 33//33 
f 33//33 34//34 34//34 
f 34//34 35//35 34//34 
f 34//34 35//35 36//36 
f 35//35 37//37 36//36 
f 36//36 37//37 37//37 
f 37//37 38//38 37//37 
f 37//37 38//38 38//38 
f 38//38 39//39 38//38 
f 38//38 39//39 40//40 
f 39//39 41//41 40//40 
f 40//40 41//41 41//41 
f 41//41 42//42 41//41 
f 41//41 42//42 42//42 
f 42//42 43//43 42//42 
f 42//42 43//43 44//44 
f 43//43 45//45 44//44 
f 44//44 45//45 45//45 
f 45//45 46//46 45//45 
f 45//45 46//46 46//46 
f 46//46 47//47 46//46 
f 46//46 47//47 48//48 
f 47//47 49//49 48//48 
f 48//48 49//49 49//49 
f 49//49 47//47 49//49 
f 49//49 47//47 50//50 
f 47//47 51//51 50//50 
f 50//50 51//51 51//51 
f 51//51 52//52 51//51 
f 51//51 52//52 52//52 
f 52//52 53//53 52//52 
f 52//52 53//53 54//54 
f 53//53 55//55 54//54 
f 54//54 55//55 55//55 
f 55//55 56//56 55//55 
f 55//55 56//56 56//56 
f 56//56 57//57 56//56 
f 56//56 57//57 58//58 
f 57//57 59//59 58//58 
f 58//58 59//59 59//59 
f 59//59 60//60 59//59 
f 59//59 60//60 60//60 
f 60//60 61//61 60//60 
f 60//60 61//61 62//62 
f 61//61 63//63 62//62 
f 62//62 63//63 63//63 
f 63//63 64//64 63//63 
f 63//63 64//64 64//64 
f 64//64 65//65 64//64 
f 64//64 65//65 66//66 
f 65//65 67//67 66//66 
f 66//66 67//67 67//67 
f 67//67 68//68 67//67 
f 67//67 68//68 68//68 
f 68//68 69//69 68//68 
f 68//68 69//69 70//70 
f 69//69 71//71 70//70 
f 70//70 71//71 71//71 
f 71//71 72//72 71//71 
f 71//71 72//72 72//72 
f 72//72 73//73 72//72 
f 72//72 73//73 74//74 
f 73//73 75//75 74//74 
f 74//74 75//75 75//75 
f 75//75 76//76 75//75 
f 75//75 76//76 76//76 
f 76//76 77//77 76//76 
f 76//76 77//77 78//78 
f 77//77 79//79 78//78 
f 78//78 79//79 79//79 
f 79//79 80//80 79//79 
f 79//79 80//80 80//80 
f 80//80 81//81 80//80 
f 80//80 81//81 82//82 
f 81//81 83//83 82//82 
f 82//82 83//83 83//83 
f 83//83 84//84 83//83 
f 83//83 84//84 84//84 
f 84//84 85//85 84//84 
f 84//84 85//85 86//86 
f 85//85 87//87 86//86 
f 86//86 87//87 87//87 
f 87//87 88//88 87//87 
f 87//87 88//88 88//88 
f 88//88 89//89 88//88 
f 88//88 89//89 90//90 
f 89//89 91//91 90//90 
f 90//90 91//91 91//91 
f 91//91 92//92 91//91 
f 91//91 92//92 92//92 
f 92//92 93//93 92//92 
f 92//92 93//93 94//94 
f 93//93 95//95 94//94 
f 94//94 95//95 95//95 
f 95//95 96//96 95//95 
f 95//95 96//96 96//96 
f 96//96 97//97 96//96 
f 96//96 97//97 98//98 
f 97//97 99//99 98//98 
f 98//98 99//99 99//99 
f 99//99 97//97 99//99 
f 99//99 97//97 100//100 
f 97//97 101//101 100//100 
f 100//100 101//101 101//101 
f 101//101 102//102 101//101 
f 101//101 102//102 102//102 
f 102//102 103//103 102//102 
f 102//102 103//103 104//104 
f 103//103 105//105 104//104 
f 22//22 24//24 106//106 
f 17//17 19//19 107//107 
f 27//27 29//29 108//108 

