mtllib model_39.mtl
o model_39
v 4.442965984344482 12.876667976379395 13.926533699035645 
v 4.406288146972656 13.288203239440918 13.663800239562988 
v 8.184102058410645 16.168949127197266 13.926533699035645 
v 7.780645847320557 16.271833419799805 13.663800239562988 
v 7.450545787811279 16.683368682861328 13.663800239562988 
v 4.039510250091553 13.665443420410156 13.663800239562988 
v 3.929476737976074 13.802621841430664 13.663800239562988 
v 4.883099555969238 12.876667976379395 15.079641342163086 
v 7.5605788230896 15.277289390563965 15.079641342163086 
v 4.6630330085754395 12.670900344848633 15.079641342163086 
v 8.367490768432617 15.963181495666504 15.079641342163086 
v 3.819443464279175 13.802621841430664 15.51753044128418 
v 3.7094099521636963 13.73403263092041 15.079641342163086 
v 4.002832412719727 13.631148338317871 15.51753044128418 
v 3.892798900604248 13.528264999389648 15.079641342163086 
v 4.6630330085754395 12.670900344848633 15.079641342163086 
v 4.442965984344482 12.876667976379395 13.926533699035645 
v 3.7094099521636963 13.73403263092041 13.926533699035645 
v 3.892798900604248 13.528264999389648 13.926533699035645 
v 4.6630330085754395 13.322497367858887 13.99951457977295 
v 7.15712308883667 15.517352104187012 13.99951457977295 
v 4.77306604385376 13.185318946838379 14.627156257629395 
v 7.267156600952148 15.414467811584473 14.627156257629395 
v 4.699710369110107 13.082435607910156 13.926533699035645 
v 4.809743881225586 12.979551315307617 14.65634822845459 
v 4.442965984344482 12.876667976379395 13.926533699035645 
v 4.589677333831787 12.739489555358887 14.65634822845459 
v 8.367490768432617 15.963181495666504 15.079641342163086 
v 7.4872236251831055 15.345878601074219 14.65634822845459 
v 8.294135093688965 16.066064834594727 14.65634822845459 
v 7.377190113067627 15.483057022094727 13.926533699035645 
v 8.184102058410645 16.168949127197266 13.926533699035645 
v 4.6630330085754395 12.670900344848633 15.079641342163086 
v 8.110746383666992 16.066064834594727 15.51753044128418 
v 4.589677333831787 12.945257186889648 15.51753044128418 
v 4.77306604385376 13.185318946838379 14.627156257629395 
v 4.809743881225586 12.979551315307617 14.65634822845459 
v 4.6630330085754395 13.322497367858887 13.99951457977295 
v 4.699710369110107 13.082435607910156 13.926533699035645 
v 7.4872236251831055 15.345878601074219 14.65634822845459 
v 7.267156600952148 15.414467811584473 14.627156257629395 
v 7.377190113067627 15.483057022094727 13.926533699035645 
v 7.15712308883667 15.517352104187012 13.99951457977295 
v 7.377190113067627 15.483057022094727 13.926533699035645 
v 7.15712308883667 15.517352104187012 13.99951457977295 
v 4.699710369110107 13.082435607910156 13.926533699035645 
v 4.6630330085754395 13.322497367858887 13.99951457977295 
v 7.340512275695801 16.923429489135742 15.51753044128418 
v 3.819443464279175 13.802621841430664 15.51753044128418 
v 7.523900985717773 16.751956939697266 15.51753044128418 
v 4.002832412719727 13.631148338317871 15.51753044128418 
v 4.589677333831787 12.945257186889648 15.51753044128418 
v 8.184102058410645 16.168949127197266 13.926533699035645 
v 7.780645847320557 16.271833419799805 13.663800239562988 
v 7.597256660461426 16.820547103881836 13.926533699035645 
v 7.450545787811279 16.683368682861328 13.663800239562988 
v 7.340512275695801 16.820547103881836 13.663800239562988 
v 4.442965984344482 12.876667976379395 13.926533699035645 
v 3.892798900604248 13.528264999389648 13.926533699035645 
v 4.406288146972656 13.288203239440918 13.663800239562988 
v 4.039510250091553 13.665443420410156 13.663800239562988 
v 3.929476737976074 13.802621841430664 13.663800239562988 
v 8.110746383666992 16.066064834594727 15.51753044128418 
v 8.367490768432617 15.963181495666504 15.079641342163086 
v 7.523900985717773 16.751956939697266 15.51753044128418 
v 7.597256660461426 16.820547103881836 15.079641342163086 
v 7.413867950439453 17.02631378173828 15.079641342163086 
v 7.413867950439453 17.02631378173828 13.926533699035645 
v 8.184102058410645 16.168949127197266 13.926533699035645 
v 7.597256660461426 16.820547103881836 13.926533699035645 
v 7.340512275695801 16.923429489135742 15.51753044128418 
v 7.413867950439453 17.02631378173828 15.079641342163086 
v 3.819443464279175 13.802621841430664 15.51753044128418 
v 3.7094099521636963 13.73403263092041 15.079641342163086 
v 7.413867950439453 17.02631378173828 13.926533699035645 
v 3.7094099521636963 13.73403263092041 13.926533699035645 
v 7.340512275695801 16.820547103881836 13.663800239562988 
v 3.929476737976074 13.802621841430664 13.663800239562988 
v 4.883099555969238 12.876667976379395 15.079641342163086 
v 4.6630330085754395 12.670900344848633 15.079641342163086 
v 7.5605788230896 15.277289390563965 15.079641342163086 
v 8.367490768432617 15.963181495666504 15.079641342163086 
v 4.809743881225586 12.979551315307617 14.65634822845459 
v 4.77306604385376 13.185318946838379 14.627156257629395 
v 7.4872236251831055 15.345878601074219 14.65634822845459 
v 7.267156600952148 15.414467811584473 14.627156257629395 
v 8.110746383666992 16.066064834594727 15.51753044128418 
v 7.340512275695801 16.820547103881836 13.663800239562988 
v 6.3502116203308105 14.591397285461426 13.926533699035645 
v 4.699710369110107 13.082435607910156 13.926533699035645 
v 4.442965984344482 12.876667976379395 13.926533699035645 
v 8.184102058410645 16.168949127197266 13.926533699035645 
v 6.3502116203308105 14.591397285461426 13.926533699035645 
v 7.377190113067627 15.483057022094727 13.926533699035645 
v 8.184102058410645 16.168949127197266 13.926533699035645 
v 8.367490768432617 15.963181495666504 15.079641342163086 
v 8.294135093688965 16.066064834594727 14.65634822845459 
v 4.6630330085754395 12.670900344848633 15.079641342163086 
v 4.442965984344482 12.876667976379395 13.926533699035645 
v 4.589677333831787 12.739489555358887 14.65634822845459 
v 7.340512275695801 16.923429489135742 15.51753044128418 
v 4.589677333831787 12.945257186889648 15.51753044128418 
vn 0.4151879549026489 -0.47390854358673096 -0.7765498161315918 
vn 0.20351924002170563 -0.22753575444221497 -0.9522643685340881 
vn 0.4151879549026489 -0.47390854358673096 -0.7765498161315918 
vn 0.19831809401512146 -0.22100713849067688 -0.9548956751823425 
vn -2.0682311115474694e-13 0 -1 
vn -2.0682311115474694e-13 0 -1 
vn -2.0682311115474694e-13 0 -1 
vn 0 0 1 
vn 0 0 1 
vn 0 0 1 
vn 0 0 1 
vn -0.7144635319709778 -0.6345097422599792 0.2948545813560486 
vn -0.7403315901756287 -0.6589795351028442 0.1328723281621933 
vn -0.7144635319709778 -0.6345097422599792 0.2948545813560486 
vn -0.7493169903755188 -0.6599575877189636 0.05459024757146835 
vn -0.744252622127533 -0.6562475562095642 0.1242060661315918 
vn -0.7454097867012024 -0.662703275680542 -0.07203252613544464 
vn -0.7465653419494629 -0.6598470211029053 -0.08510008454322815 
vn -0.7288200855255127 -0.648781955242157 -0.21886809170246124 
vn 0.6424149870872498 -0.7277635931968689 -0.2401314377784729 
vn 0.6424149870872498 -0.7277635931968689 -0.2401314377784729 
vn 0.6424149870872498 -0.7277635931968689 -0.2401314377784729 
vn 0.6424149870872498 -0.7277635931968689 -0.2401314377784729 
vn 0.6424149870872498 -0.7277635931968689 -0.2401314377784729 
vn 0.6424149870872498 -0.7277635931968689 -0.2401314377784729 
vn 0.6424149870872498 -0.7277635931968689 -0.2401314377784729 
vn 0.6424149870872498 -0.7277635931968689 -0.2401314377784729 
vn 0.6630451083183289 -0.7484232187271118 0.0152922747656703 
vn 0.6424149870872498 -0.7277635931968689 -0.2401314377784729 
vn 0.6424149870872498 -0.7277635931968689 -0.2401314377784729 
vn 0.6424149870872498 -0.7277635931968689 -0.2401314377784729 
vn 0.6424149870872498 -0.7277635931968689 -0.2401314377784729 
vn 0.63986736536026 -0.7211670875549316 0.26549527049064636 
vn 0.5862718224525452 -0.655633807182312 0.4758462607860565 
vn 0.5862718224525452 -0.655633807182312 0.4758462607860565 
vn 0.9807745218276978 0.1429205983877182 -0.1328723281621933 
vn 0.9807745218276978 0.1429205983877182 -0.1328723281621933 
vn 0.9807745218276978 0.1429205983877182 -0.1328723281621933 
vn 0.9807745218276978 0.1429205983877182 -0.1328723281621933 
vn -0.25925731658935547 -0.9566245675086975 -0.1328723281621933 
vn -0.25925731658935547 -0.9566245675086975 -0.1328723281621933 
vn -0.25925731658935547 -0.9566245675086975 -0.1328723281621933 
vn -0.25925731658935547 -0.9566245675086975 -0.1328723281621933 
vn 0.24011337757110596 -0.26667290925979614 0.933397650718689 
vn 0.24011337757110596 -0.26667290925979614 0.933397650718689 
vn 0.24011337757110596 -0.26667290925979614 0.933397650718689 
vn 0.24011337757110596 -0.26667290925979614 0.933397650718689 
vn 0 0 1 
vn 0 0 1 
vn 0 0 1 
vn 0 0 1 
vn 0 0 1 
vn 0.7454097867012024 0.662703275680542 -0.07203252613544464 
vn 0.5785379409790039 0.5117630362510681 -0.6351318359375 
vn 0.7288200855255127 0.648781955242157 -0.21886809170246124 
vn 0.5785379409790039 0.5117630362510681 -0.6351318359375 
vn 0.5785379409790039 0.5117630362510681 -0.6351318359375 
vn -0.7454097867012024 -0.662703275680542 -0.07203252613544464 
vn -0.7288200855255127 -0.648781955242157 -0.21886809170246124 
vn -0.5785379409790039 -0.5117630362510681 -0.6351318359375 
vn -0.5785379409790039 -0.5117630362510681 -0.6351318359375 
vn -0.5785379409790039 -0.5117630362510681 -0.6351318359375 
vn 0.7144635319709778 0.6345097422599792 0.2948545813560486 
vn 0.744252622127533 0.6562475562095642 0.1242060661315918 
vn 0.7144635319709778 0.6345097422599792 0.2948545813560486 
vn 0.7468166351318359 0.6627856492996216 0.05459024757146835 
vn 0.7428356409072876 0.6561555862426758 0.1328723281621933 
vn 0.7440594434738159 0.6626715064048767 -0.08510008454322815 
vn 0.7454097867012024 0.662703275680542 -0.07203252613544464 
vn 0.7288200855255127 0.648781955242157 -0.21886809170246124 
vn -0.6631211042404175 0.7485089898109436 0.002184694167226553 
vn -0.6631211042404175 0.7485089898109436 0.002184694167226553 
vn -0.6631211042404175 0.7485089898109436 0.002184694167226553 
vn -0.6631211042404175 0.7485089898109436 0.002184694167226553 
vn -0.6626653671264648 0.747994601726532 -0.03713129088282585 
vn -0.6577041149139404 0.7443642020225525 -0.11553031951189041 
vn -0.6189790368080139 0.7017510533332825 -0.3527185618877411 
vn -0.6189790368080139 0.7017510533332825 -0.3527185618877411 
vn -2.0682311115474694e-13 0 -1 
vn -2.0682311115474694e-13 0 -1 
vn -2.0682311115474694e-13 0 -1 
vn -2.0682311115474694e-13 0 -1 
vn 0.07294707000255585 -0.0810159295797348 -0.9940398335456848 
vn 0.07294707000255585 -0.0810159295797348 -0.9940398335456848 
vn 0.07294707000255585 -0.0810159295797348 -0.9940398335456848 
vn 0.07294707000255585 -0.0810159295797348 -0.9940398335456848 
vn 0 0 1 
vn -2.0682311115474694e-13 0 -1 
vn -2.0682311115474694e-13 0 -1 
vn -2.0682311115474694e-13 0 -1 
vn -2.0682311115474694e-13 0 -1 
vn -2.0682311115474694e-13 0 -1 
vn -2.0682311115474694e-13 0 -1 
vn -2.0682311115474694e-13 0 -1 
vn -0.6494047045707703 0.720108687877655 0.24437066912651062 
vn -0.6494047045707703 0.720108687877655 0.24437066912651062 
vn -0.6494047045707703 0.720108687877655 0.24437066912651062 
vn 0.22448423504829407 0.9641454815864563 0.1415284425020218 
vn 0.22448423504829407 0.9641454815864563 0.1415284425020218 
vn 0.22448423504829407 0.9641454815864563 0.1415284425020218 
vn 0.7144635319709778 0.6345097422599792 0.2948545813560486 
vn -0.7144635319709778 -0.6345097422599792 0.2948545813560486 
vt 0.7416302561759949 0.790382981300354 
vt 0.704569935798645 0.7656223177909851 
vt 0.7416302561759949 0.23010610044002533 
vt 0.704569935798645 0.25486674904823303 
vt 0.6449931263923645 0.25486674904823303 
vt 0.6449931263923645 0.7656223177909851 
vt 0.6264191269874573 0.7656223177909851 
vt 0.236628919839859 0.754367470741272 
vt 0.236628919839859 0.3499433994293213 
vt 0.236628919839859 0.790382981300354 
vt 0.236628919839859 0.23010610044002533 
vt 0.422280877828598 0.790382981300354 
vt 0.4685405194759369 0.790382981300354 
vt 0.422280877828598 0.8202887177467346 
vt 0.4709060788154602 0.8202887177467346 
vt 0.4709060788154602 0.9492371082305908 
vt 0.6010990142822266 0.9170804023742676 
vt 0.6033769249916077 0.790382981300354 
vt 0.6010990142822266 0.8202887177467346 
vt 0.11397071927785873 0.7401113510131836 
vt 0.11397071927785873 0.3640923500061035 
vt 0.18572576344013214 0.7401113510131836 
vt 0.18572576344013214 0.3640923500061035 
vt 0.10643599927425385 0.754367470741272 
vt 0.18809132277965546 0.754367470741272 
vt 0.10643599927425385 0.790382981300354 
vt 0.18809132277965546 0.790382981300354 
vt 0.236628919839859 0.23010610044002533 
vt 0.18809132277965546 0.3499433994293213 
vt 0.18809132277965546 0.23010610044002533 
vt 0.10643599927425385 0.3499433994293213 
vt 0.10643599927425385 0.23010610044002533 
vt 0.236628919839859 0.790382981300354 
vt 0.28516653180122375 0.2451125532388687 
vt 0.28516653180122375 0.775376558303833 
vt 0.18572576344013214 0.7401113510131836 
vt 0.18809132277965546 0.754367470741272 
vt 0.11397071927785873 0.7401113510131836 
vt 0.10643599927425385 0.754367470741272 
vt 0.18809132277965546 0.3499433994293213 
vt 0.18572576344013214 0.3640923500061035 
vt 0.10643599927425385 0.3499433994293213 
vt 0.11397071927785873 0.3640923500061035 
vt 0.7770258784294128 0.23010610044002533 
vt 0.7967388033866882 0.24425505101680756 
vt 0.7770258784294128 0.6345301866531372 
vt 0.7967388033866882 0.6202740669250488 
vt 0.4176373779773712 0.2451125532388687 
vt 0.4176373779773712 0.775376558303833 
vt 0.38776135444641113 0.2451125532388687 
vt 0.38776135444641113 0.775376558303833 
vt 0.28516653180122375 0.775376558303833 
vt 0.7416302561759949 0.23010610044002533 
vt 0.704569935798645 0.25486674904823303 
vt 0.6449931263923645 0.23010610044002533 
vt 0.6449931263923645 0.25486674904823303 
vt 0.6264191269874573 0.25486674904823303 
vt 0.7416302561759949 0.790382981300354 
vt 0.6449931263923645 0.790382981300354 
vt 0.704569935798645 0.7656223177909851 
vt 0.6449931263923645 0.7656223177909851 
vt 0.6264191269874573 0.7656223177909851 
vt 0.422280877828598 0.09762049466371536 
vt 0.4709060788154602 0.0712520033121109 
vt 0.422280877828598 0.20020036399364471 
vt 0.4709060788154602 0.20020036399364471 
vt 0.4685405194759369 0.23010610044002533 
vt 0.6033769249916077 0.23010610044002533 
vt 0.6010990142822266 0.10340870171785355 
vt 0.6010990142822266 0.20020036399364471 
vt 0.4176373779773712 0.2451125532388687 
vt 0.4685405194759369 0.23010610044002533 
vt 0.4176373779773712 0.775376558303833 
vt 0.4685405194759369 0.790382981300354 
vt 0.6033769249916077 0.23010610044002533 
vt 0.6033769249916077 0.790382981300354 
vt 0.6264191269874573 0.25486674904823303 
vt 0.6264191269874573 0.7656223177909851 
vt 0.236628919839859 0.754367470741272 
vt 0.236628919839859 0.790382981300354 
vt 0.236628919839859 0.3499433994293213 
vt 0.236628919839859 0.23010610044002533 
vt 0.8240740895271301 0.6345301866531372 
vt 0.801908016204834 0.6202740669250488 
vt 0.8240740895271301 0.23010610044002533 
vt 0.801908016204834 0.24425505101680756 
vt 0.28516653180122375 0.2451125532388687 
vt 0.6264191269874573 0.25486674904823303 
vt 0.7416302561759949 0.5031164884567261 
vt 0.7416302561759949 0.754367470741272 
vt 0.7416302561759949 0.790382981300354 
vt 0.7416302561759949 0.23010610044002533 
vt 0.7416302561759949 0.5031164884567261 
vt 0.7416302561759949 0.3499433994293213 
vt 0.6010990142822266 0.10340870171785355 
vt 0.4709060788154602 0.0712520033121109 
vt 0.519443690776825 0.08325716853141785 
vt 0.4709060788154602 0.9492371082305908 
vt 0.6010990142822266 0.9170804023742676 
vt 0.519443690776825 0.9372319579124451 
vt 0.422280877828598 0.23010610044002533 
vt 0.422280877828598 0.9228686094284058 
s on 
f 1/1/1 2/2/2 3/3/3 
f 2/2/2 4/4/4 3/3/3 
f 3/3/3 4/4/4 4/4/4 
f 4/4/4 2/2/2 4/4/4 
f 4/4/4 2/2/2 5/5/5 
f 2/2/2 6/6/6 5/5/5 
f 5/5/5 6/6/6 7/7/7 
f 6/6/6 7/7/7 7/7/7 
f 7/7/7 7/7/7 8/8/8 
f 7/7/7 8/8/8 8/8/8 
f 8/8/8 8/8/8 8/8/8 
f 8/8/8 9/9/9 8/8/8 
f 8/8/8 9/9/9 10/10/10 
f 9/9/9 11/11/11 10/10/10 
f 10/10/10 11/11/11 11/11/11 
f 11/11/11 12/12/12 11/11/11 
f 11/11/11 12/12/12 12/12/12 
f 12/12/12 13/13/13 12/12/12 
f 12/12/12 13/13/13 14/14/14 
f 13/13/13 15/15/15 14/14/14 
f 14/14/14 15/15/15 16/16/16 
f 15/15/15 17/17/17 16/16/16 
f 16/16/16 17/17/17 17/17/17 
f 17/17/17 13/13/13 17/17/17 
f 17/17/17 13/13/13 13/13/13 
f 13/13/13 18/18/18 13/13/13 
f 13/13/13 18/18/18 15/15/15 
f 18/18/18 19/19/19 15/15/15 
f 15/15/15 19/19/19 17/17/17 
f 19/19/19 17/17/17 17/17/17 
f 17/17/17 17/17/17 20/20/20 
f 17/17/17 20/20/20 20/20/20 
f 20/20/20 20/20/20 20/20/20 
f 20/20/20 21/21/21 20/20/20 
f 20/20/20 21/21/21 22/22/22 
f 21/21/21 23/23/23 22/22/22 
f 22/22/22 23/23/23 23/23/23 
f 23/23/23 24/24/24 23/23/23 
f 23/23/23 24/24/24 24/24/24 
f 24/24/24 25/25/25 24/24/24 
f 24/24/24 25/25/25 26/26/26 
f 25/25/25 27/27/27 26/26/26 
f 26/26/26 27/27/27 27/27/27 
f 27/27/27 25/25/25 27/27/27 
f 27/27/27 25/25/25 28/28/28 
f 25/25/25 29/29/29 28/28/28 
f 28/28/28 29/29/29 30/30/30 
f 29/29/29 31/31/31 30/30/30 
f 30/30/30 31/31/31 32/32/32 
f 31/31/31 32/32/32 32/32/32 
f 32/32/32 32/32/32 27/27/27 
f 32/32/32 27/27/27 27/27/27 
f 27/27/27 27/27/27 27/27/27 
f 27/27/27 28/28/28 27/27/27 
f 27/27/27 28/28/28 33/33/33 
f 28/28/28 34/34/34 33/33/33 
f 33/33/33 34/34/34 35/35/35 
f 34/34/34 35/35/35 35/35/35 
f 35/35/35 35/35/35 36/36/36 
f 35/35/35 36/36/36 36/36/36 
f 36/36/36 36/36/36 36/36/36 
f 36/36/36 37/37/37 36/36/36 
f 36/36/36 37/37/37 38/38/38 
f 37/37/37 39/39/39 38/38/38 
f 38/38/38 39/39/39 39/39/39 
f 39/39/39 40/40/40 39/39/39 
f 39/39/39 40/40/40 40/40/40 
f 40/40/40 41/41/41 40/40/40 
f 40/40/40 41/41/41 42/42/42 
f 41/41/41 43/43/43 42/42/42 
f 42/42/42 43/43/43 43/43/43 
f 43/43/43 44/44/44 43/43/43 
f 43/43/43 44/44/44 44/44/44 
f 44/44/44 45/45/45 44/44/44 
f 44/44/44 45/45/45 46/46/46 
f 45/45/45 47/47/47 46/46/46 
f 46/46/46 47/47/47 47/47/47 
f 47/47/47 48/48/48 47/47/47 
f 47/47/47 48/48/48 48/48/48 
f 48/48/48 49/49/49 48/48/48 
f 48/48/48 49/49/49 50/50/50 
f 49/49/49 51/51/51 50/50/50 
f 50/50/50 51/51/51 52/52/52 
f 51/51/51 52/52/52 52/52/52 
f 52/52/52 52/52/52 53/53/53 
f 52/52/52 53/53/53 53/53/53 
f 53/53/53 53/53/53 53/53/53 
f 53/53/53 54/54/54 53/53/53 
f 53/53/53 54/54/54 55/55/55 
f 54/54/54 56/56/56 55/55/55 
f 55/55/55 56/56/56 57/57/57 
f 56/56/56 57/57/57 57/57/57 
f 57/57/57 57/57/57 58/58/58 
f 57/57/57 58/58/58 58/58/58 
f 58/58/58 58/58/58 58/58/58 
f 58/58/58 59/59/59 58/58/58 
f 58/58/58 59/59/59 60/60/60 
f 59/59/59 61/61/61 60/60/60 
f 60/60/60 61/61/61 61/61/61 
f 61/61/61 59/59/59 61/61/61 
f 61/61/61 59/59/59 62/62/62 
f 59/59/59 18/18/18 62/62/62 
f 62/62/62 18/18/18 18/18/18 
f 18/18/18 63/63/63 18/18/18 
f 18/18/18 63/63/63 63/63/63 
f 63/63/63 64/64/64 63/63/63 
f 63/63/63 64/64/64 65/65/65 
f 64/64/64 66/66/66 65/65/65 
f 65/65/65 66/66/66 67/67/67 
f 66/66/66 68/68/68 67/67/67 
f 67/67/67 68/68/68 68/68/68 
f 68/68/68 64/64/64 68/68/68 
f 68/68/68 64/64/64 64/64/64 
f 64/64/64 69/69/69 64/64/64 
f 64/64/64 69/69/69 66/66/66 
f 69/69/69 70/70/70 66/66/66 
f 66/66/66 70/70/70 68/68/68 
f 70/70/70 68/68/68 68/68/68 
f 68/68/68 68/68/68 71/71/71 
f 68/68/68 71/71/71 71/71/71 
f 71/71/71 71/71/71 71/71/71 
f 71/71/71 72/72/72 71/71/71 
f 71/71/71 72/72/72 73/73/73 
f 72/72/72 74/74/74 73/73/73 
f 73/73/73 74/74/74 74/74/74 
f 74/74/74 72/72/72 74/74/74 
f 74/74/74 72/72/72 72/72/72 
f 72/72/72 75/75/75 72/72/72 
f 72/72/72 75/75/75 74/74/74 
f 75/75/75 76/76/76 74/74/74 
f 74/74/74 76/76/76 76/76/76 
f 76/76/76 75/75/75 76/76/76 
f 76/76/76 75/75/75 75/75/75 
f 75/75/75 77/77/77 75/75/75 
f 75/75/75 77/77/77 76/76/76 
f 77/77/77 78/78/78 76/76/76 
f 76/76/76 78/78/78 78/78/78 
f 78/78/78 79/79/79 78/78/78 
f 78/78/78 79/79/79 79/79/79 
f 79/79/79 80/80/80 79/79/79 
f 79/79/79 80/80/80 81/81/81 
f 80/80/80 82/82/82 81/81/81 
f 81/81/81 82/82/82 82/82/82 
f 82/82/82 83/83/83 82/82/82 
f 82/82/82 83/83/83 83/83/83 
f 83/83/83 84/84/84 83/83/83 
f 83/83/83 84/84/84 85/85/85 
f 84/84/84 86/86/86 85/85/85 
f 50/50/50 52/52/52 87/87/87 
f 5/5/5 7/7/7 88/88/88 
f 89/89/89 90/90/90 91/91/91 
f 92/92/92 93/93/93 94/94/94 
f 95/95/95 96/96/96 97/97/97 
f 98/98/98 99/99/99 100/100/100 
f 55/55/55 57/57/57 68/68/68 
f 65/65/65 67/67/67 101/101/101 
f 14/14/14 16/16/16 102/102/102 

