mtllib model_31.mtl
o model_31
v 13.819849967956543 5.762609958648682 -7.923789978027344 
v 12.236300468444824 5.762609958648682 -7.923789978027344 
v 13.819849967956543 6.091357231140137 -7.923789978027344 
v 12.236300468444824 6.091357231140137 -7.923789978027344 
vn 2.0682311115474694e-13 4.2775797696334704e-26 -1 
vn 2.0682311115474694e-13 4.2775797696334704e-26 -1 
vn 2.0682311115474694e-13 4.2775797696334704e-26 -1 
vn 2.0682311115474694e-13 4.2775797696334704e-26 -1 
vt 0.477946013212204 0.2609820067882538 
vt 0.709008514881134 0.2609820067882538 
vt 0.477946013212204 0.2790316343307495 
vt 0.709008514881134 0.2790316343307495 
s on 
f 1/1/1 2/2/2 3/3/3 
f 2/2/2 4/4/4 3/3/3 

