mtllib model_50.mtl
o model_50
v 1.1010745763778687 0.8807697892189026 0 
v 1.1010745763778687 0.25660181045532227 0 
v -1.1010799407958984 0.8807697892189026 0 
v -1.1010799407958984 0.25660181045532227 0 
v 1.1010745763778687 -0.2704733908176422 0 
v -1.1010799407958984 -0.2704733908176422 0 
v 1.1010745763778687 -0.8807709813117981 0 
v -1.1010799407958984 -0.8807709813117981 0 
vn -2.0682311115474694e-13 0 -1 
vn -2.0682311115474694e-13 0 -1 
vn -2.0682311115474694e-13 0 -1 
vn -2.0682311115474694e-13 0 -1 
vn -2.0682311115474694e-13 0 -1 
vn -2.0682311115474694e-13 0 -1 
vn -2.0682311115474694e-13 0 -1 
vn -2.0682311115474694e-13 0 -1 
vt 0.2876780033111572 0.8846360445022583 
vt 0.2876780033111572 0.8591968417167664 
vt 0.3567003011703491 0.8846360445022583 
vt 0.3567003011703491 0.8591968417167664 
vt 0.2876780033111572 0.8378335237503052 
vt 0.3567003011703491 0.8378335237503052 
vt 0.2876780033111572 0.8128160238265991 
vt 0.3567003011703491 0.8128160238265991 
s on 
f 1/1/1 2/2/2 3/3/3 
f 2/2/2 2/2/2 3/3/3 
f 3/3/3 2/2/2 4/4/4 
f 2/2/2 5/5/5 4/4/4 
f 4/4/4 5/5/5 6/6/6 
f 5/5/5 7/7/7 6/6/6 
f 6/6/6 7/7/7 8/8/8 

