mtllib model_75.mtl
o model_75
v 0.5970966219902039 0.5878012776374817 0.7087363004684448 
v -0.5973230004310608 0.5878012776374817 0.7087363004684448 
v 0.5970966219902039 -0.5879989862442017 0.7087363004684448 
v -0.5973230004310608 -0.5879989862442017 0.7087363004684448 
v 0.7087246179580688 0.5878012776374817 -0.5973230004310608 
v 0.7087246179580688 0.5878012776374817 0.5971072912216187 
v 0.7087246179580688 -0.5879989862442017 -0.5973230004310608 
v 0.7087246179580688 -0.5879989862442017 0.5971072912216187 
v -0.7089509963989258 0.5878012776374817 0.5971072912216187 
v -0.7089509963989258 0.5878012776374817 -0.5973230004310608 
v -0.7089509963989258 -0.5879989862442017 0.5971072912216187 
v -0.7089509963989258 -0.5879989862442017 -0.5973230004310608 
v -0.5973230004310608 0.5878012776374817 -0.708952009677887 
v 0.5970966219902039 0.5878012776374817 -0.708952009677887 
v -0.5973230004310608 -0.5879989862442017 -0.708952009677887 
v 0.5970966219902039 -0.5879989862442017 -0.708952009677887 
v -0.5973230004310608 0.5878012776374817 0.7087363004684448 
v -0.7089509963989258 0.5878012776374817 0.5971072912216187 
v -0.5973230004310608 -0.5879989862442017 0.7087363004684448 
v -0.7089509963989258 -0.5879989862442017 0.5971072912216187 
v -0.5973230004310608 -0.5879989862442017 -0.708952009677887 
v -0.7089509963989258 -0.5879989862442017 -0.5973230004310608 
v -0.5973230004310608 0.5878012776374817 -0.708952009677887 
v -0.7089509963989258 0.5878012776374817 -0.5973230004310608 
v 0.7087246179580688 -0.5879989862442017 -0.5973230004310608 
v 0.5970966219902039 -0.5879989862442017 -0.708952009677887 
v 0.7087246179580688 0.5878012776374817 -0.5973230004310608 
v 0.5970966219902039 0.5878012776374817 -0.708952009677887 
v 0.5970966219902039 -0.5879989862442017 0.7087363004684448 
v 0.7087246179580688 -0.5879989862442017 0.5971072912216187 
v 0.5970966219902039 0.5878012776374817 0.7087363004684448 
v 0.7087246179580688 0.5878012776374817 0.5971072912216187 
v -0.49685779213905334 -0.5879989862442017 0.5412927865982056 
v -0.5973230004310608 -0.5879989862442017 0.7087363004684448 
v -0.5415089726448059 -0.5879989862442017 0.4966411888599396 
v -0.7089509963989258 -0.5879989862442017 0.5971072912216187 
v -0.5415089726448059 -0.5879989862442017 -0.4968568980693817 
v -0.7089509963989258 -0.5879989862442017 -0.5973230004310608 
v -0.49685779213905334 -0.5879989862442017 -0.5415084958076477 
v -0.5973230004310608 -0.5879989862442017 -0.708952009677887 
v 0.4966314136981964 -0.5879989862442017 -0.5415084958076477 
v 0.5970966219902039 -0.5879989862442017 -0.708952009677887 
v 0.541282594203949 -0.5879989862442017 -0.4968568980693817 
v 0.7087246179580688 -0.5879989862442017 -0.5973230004310608 
v 0.541282594203949 -0.5879989862442017 0.4966411888599396 
v 0.7087246179580688 -0.5879989862442017 0.5971072912216187 
v 0.4966314136981964 -0.5879989862442017 0.5412927865982056 
v 0.5970966219902039 -0.5879989862442017 0.7087363004684448 
v -0.49685779213905334 -0.5879989862442017 0.5412927865982056 
v -0.5973230004310608 -0.5879989862442017 0.7087363004684448 
v -0.5973230004310608 0.5878012776374817 0.7087363004684448 
v -0.49685779213905334 0.5878012776374817 0.5412927865982056 
v -0.7089509963989258 0.5878012776374817 0.5971072912216187 
v -0.5415089726448059 0.5878012776374817 0.4966411888599396 
v -0.7089509963989258 0.5878012776374817 -0.5973230004310608 
v -0.5415089726448059 0.5878012776374817 -0.4968568980693817 
v -0.5973230004310608 0.5878012776374817 -0.708952009677887 
v -0.49685779213905334 0.5878012776374817 -0.5415084958076477 
v 0.5970966219902039 0.5878012776374817 -0.708952009677887 
v 0.4966314136981964 0.5878012776374817 -0.5415084958076477 
v 0.7087246179580688 0.5878012776374817 -0.5973230004310608 
v 0.541282594203949 0.5878012776374817 -0.4968568980693817 
v 0.7087246179580688 0.5878012776374817 0.5971072912216187 
v 0.541282594203949 0.5878012776374817 0.4966411888599396 
v 0.5970966219902039 0.5878012776374817 0.7087363004684448 
v 0.4966314136981964 0.5878012776374817 0.5412927865982056 
v -0.5973230004310608 0.5878012776374817 0.7087363004684448 
v -0.49685779213905334 0.5878012776374817 0.5412927865982056 
vn 0 0 1 
vn 0 0 1 
vn 0 0 1 
vn 0 0 1 
vn 0.999997615814209 0 0.002184694167226553 
vn 0.999997615814209 0 0.002184694167226553 
vn 0.999997615814209 0 0.002184694167226553 
vn 0.999997615814209 0 0.002184694167226553 
vn -0.999997615814209 -2.0682260971124217e-13 0.002184694167226553 
vn -0.999997615814209 -2.0682260971124217e-13 0.002184694167226553 
vn -0.999997615814209 -2.0682260971124217e-13 0.002184694167226553 
vn -0.999997615814209 -2.0682260971124217e-13 0.002184694167226553 
vn -2.0682311115474694e-13 0 -1 
vn -2.0682311115474694e-13 0 -1 
vn -2.0682311115474694e-13 0 -1 
vn -2.0682311115474694e-13 0 -1 
vn -0.7078787684440613 -1.4640568759497624e-13 0.7063339352607727 
vn -0.7078787684440613 -1.4640568759497624e-13 0.7063339352607727 
vn -0.7078787684440613 -1.4640568759497624e-13 0.7063339352607727 
vn -0.7078787684440613 -1.4640568759497624e-13 0.7063339352607727 
vn -0.7078686952590942 0.0037756471429020166 -0.7063339352607727 
vn -0.7078686952590942 0.0037756471429020166 -0.7063339352607727 
vn -0.7078686952590942 0.0037756471429020166 -0.7063339352607727 
vn -0.7078686952590942 0.0037756471429020166 -0.7063339352607727 
vn 0.7078787684440613 0 -0.7063339352607727 
vn 0.7078787684440613 0 -0.7063339352607727 
vn 0.7078787684440613 0 -0.7063339352607727 
vn 0.7078787684440613 0 -0.7063339352607727 
vn 0.7078787684440613 0 0.7063339352607727 
vn 0.7078787684440613 0 0.7063339352607727 
vn 0.7078787684440613 0 0.7063339352607727 
vn 0.7078787684440613 0 0.7063339352607727 
vn 3.097898456858039e-13 -0.999997615814209 0.002184694167226553 
vn 3.097898456858039e-13 -0.999997615814209 0.002184694167226553 
vn 3.097898456858039e-13 -0.999997615814209 0.002184694167226553 
vn 3.097898456858039e-13 -0.999997615814209 0.002184694167226553 
vn 3.097898456858039e-13 -0.999997615814209 0.002184694167226553 
vn 3.097898456858039e-13 -0.999997615814209 0.002184694167226553 
vn 3.097898456858039e-13 -0.999997615814209 0.002184694167226553 
vn 3.097898456858039e-13 -0.999997615814209 0.002184694167226553 
vn 3.097898456858039e-13 -0.999997615814209 0.002184694167226553 
vn 3.097898456858039e-13 -0.999997615814209 0.002184694167226553 
vn 3.097898456858039e-13 -0.999997615814209 0.002184694167226553 
vn 3.097898456858039e-13 -0.999997615814209 0.002184694167226553 
vn 3.097898456858039e-13 -0.999997615814209 0.002184694167226553 
vn 3.097898456858039e-13 -0.999997615814209 0.002184694167226553 
vn 3.097898456858039e-13 -0.999997615814209 0.002184694167226553 
vn 3.097898456858039e-13 -0.999997615814209 0.002184694167226553 
vn 3.097898456858039e-13 -0.999997615814209 0.002184694167226553 
vn 3.097898456858039e-13 -0.999997615814209 0.002184694167226553 
vn -1.0341130485562108e-13 0.999997615814209 0.002184694167226553 
vn -1.0341130485562108e-13 0.999997615814209 0.002184694167226553 
vn -1.0341130485562108e-13 0.999997615814209 0.002184694167226553 
vn -1.0341130485562108e-13 0.999997615814209 0.002184694167226553 
vn -1.0341130485562108e-13 0.999997615814209 0.002184694167226553 
vn -1.0341130485562108e-13 0.999997615814209 0.002184694167226553 
vn -1.0341130485562108e-13 0.999997615814209 0.002184694167226553 
vn -1.0341130485562108e-13 0.999997615814209 0.002184694167226553 
vn -1.0341130485562108e-13 0.999997615814209 0.002184694167226553 
vn -1.0341130485562108e-13 0.999997615814209 0.002184694167226553 
vn -1.0341130485562108e-13 0.999997615814209 0.002184694167226553 
vn -1.0341130485562108e-13 0.999997615814209 0.002184694167226553 
vn -1.0341130485562108e-13 0.999997615814209 0.002184694167226553 
vn -1.0341130485562108e-13 0.999997615814209 0.002184694167226553 
vn -1.0341130485562108e-13 0.999997615814209 0.002184694167226553 
vn -1.0341130485562108e-13 0.999997615814209 0.002184694167226553 
vn -1.0341130485562108e-13 0.999997615814209 0.002184694167226553 
vn -1.0341130485562108e-13 0.999997615814209 0.002184694167226553 
vt 0.7805073857307434 0.11981493979692459 
vt 0.7500059008598328 0.1276019662618637 
vt 0.778165340423584 0.04964426904916763 
vt 0.7481539845466614 0.05362527444958687 
vt 0.8027299046516418 0.11828378587961197 
vt 0.7827405333518982 0.11754008382558823 
vt 0.8015316724777222 0.04850684106349945 
vt 0.7808886766433716 0.05051921680569649 
vt 0.8534387350082397 0.11758382618427277 
vt 0.8279481530189514 0.11526522040367126 
vt 0.8552905917167664 0.05165664479136467 
vt 0.8263686299324036 0.051919128745794296 
vt 0.8257150053977966 0.11557145416736603 
vt 0.8047996759414673 0.11872125416994095 
vt 0.8241899609565735 0.05156915262341499 
vt 0.8035469651222229 0.04811311513185501 
vt 0.8574692606925964 0.12064614146947861 
vt 0.8534387350082397 0.11758382618427277 
vt 0.8596479296684265 0.049994248896837234 
vt 0.8552905917167664 0.05165664479136467 
vt 0.8241899609565735 0.05156915262341499 
vt 0.8263686299324036 0.051919128745794296 
vt 0.8257150053977966 0.11557145416736603 
vt 0.8279481530189514 0.11526522040367126 
vt 0.8015316724777222 0.04850684106349945 
vt 0.8035469651222229 0.04811311513185501 
vt 0.8027299046516418 0.11828378587961197 
vt 0.8047996759414673 0.11872125416994095 
vt 0.778165340423584 0.04964426904916763 
vt 0.7808886766433716 0.05051921680569649 
vt 0.7805073857307434 0.11981493979692459 
vt 0.7827405333518982 0.11754008382558823 
vt 0.859103262424469 0.04225097596645355 
vt 0.8596479296684265 0.049994248896837234 
vt 0.8575237393379211 0.045094553381204605 
vt 0.8552905917167664 0.05165664479136467 
vt 0.8268043398857117 0.042950935661792755 
vt 0.8263686299324036 0.051919128745794296 
vt 0.824734628200531 0.041769757866859436 
vt 0.8241899609565735 0.05156915262341499 
vt 0.8032746315002441 0.04106979817152023 
vt 0.8035469651222229 0.04811311513185501 
vt 0.8016950488090515 0.04168226197361946 
vt 0.8015316724777222 0.04850684106349945 
vt 0.7818690538406372 0.04500705748796463 
vt 0.7808886766433716 0.05051921680569649 
vt 0.7800171971321106 0.043913375586271286 
vt 0.778165340423584 0.04964426904916763 
vt 0.7484807968139648 0.042557209730148315 
vt 0.7481539845466614 0.05362527444958687 
vt 0.8574692606925964 0.12064614146947861 
vt 0.8548548817634583 0.13044553995132446 
vt 0.8534387350082397 0.11758382618427277 
vt 0.8536565899848938 0.12659576535224915 
vt 0.8279481530189514 0.11526522040367126 
vt 0.8280026316642761 0.12733948230743408 
vt 0.8257150053977966 0.11557145416736603 
vt 0.8262596726417542 0.12764570116996765 
vt 0.8047996759414673 0.11872125416994095 
vt 0.8052354454994202 0.13040179014205933 
vt 0.8027299046516418 0.11828378587961197 
vt 0.8035469651222229 0.12965808808803558 
vt 0.7827405333518982 0.11754008382558823 
vt 0.7836664915084839 0.12545834481716156 
vt 0.7805073857307434 0.11981493979692459 
vt 0.782086968421936 0.1259833127260208 
vt 0.7500059008598328 0.1276019662618637 
vt 0.7511497139930725 0.13062052428722382 
s on 
f 1/1/1 2/2/2 3/3/3 
f 2/2/2 4/4/4 3/3/3 
f 3/3/3 4/4/4 4/4/4 
f 4/4/4 5/5/5 4/4/4 
f 4/4/4 5/5/5 5/5/5 
f 5/5/5 6/6/6 5/5/5 
f 5/5/5 6/6/6 7/7/7 
f 6/6/6 8/8/8 7/7/7 
f 7/7/7 8/8/8 8/8/8 
f 8/8/8 9/9/9 8/8/8 
f 8/8/8 9/9/9 9/9/9 
f 9/9/9 10/10/10 9/9/9 
f 9/9/9 10/10/10 11/11/11 
f 10/10/10 12/12/12 11/11/11 
f 11/11/11 12/12/12 12/12/12 
f 12/12/12 13/13/13 12/12/12 
f 12/12/12 13/13/13 13/13/13 
f 13/13/13 14/14/14 13/13/13 
f 13/13/13 14/14/14 15/15/15 
f 14/14/14 16/16/16 15/15/15 
f 15/15/15 16/16/16 16/16/16 
f 16/16/16 17/17/17 16/16/16 
f 16/16/16 17/17/17 17/17/17 
f 17/17/17 18/18/18 17/17/17 
f 17/17/17 18/18/18 19/19/19 
f 18/18/18 20/20/20 19/19/19 
f 19/19/19 20/20/20 20/20/20 
f 20/20/20 21/21/21 20/20/20 
f 20/20/20 21/21/21 21/21/21 
f 21/21/21 22/22/22 21/21/21 
f 21/21/21 22/22/22 23/23/23 
f 22/22/22 24/24/24 23/23/23 
f 23/23/23 24/24/24 24/24/24 
f 24/24/24 25/25/25 24/24/24 
f 24/24/24 25/25/25 25/25/25 
f 25/25/25 26/26/26 25/25/25 
f 25/25/25 26/26/26 27/27/27 
f 26/26/26 28/28/28 27/27/27 
f 27/27/27 28/28/28 28/28/28 
f 28/28/28 29/29/29 28/28/28 
f 28/28/28 29/29/29 29/29/29 
f 29/29/29 30/30/30 29/29/29 
f 29/29/29 30/30/30 31/31/31 
f 30/30/30 32/32/32 31/31/31 
f 31/31/31 32/32/32 32/32/32 
f 32/32/32 33/33/33 32/32/32 
f 32/32/32 33/33/33 33/33/33 
f 33/33/33 34/34/34 33/33/33 
f 33/33/33 34/34/34 35/35/35 
f 34/34/34 36/36/36 35/35/35 
f 35/35/35 36/36/36 37/37/37 
f 36/36/36 38/38/38 37/37/37 
f 37/37/37 38/38/38 39/39/39 
f 38/38/38 40/40/40 39/39/39 
f 39/39/39 40/40/40 41/41/41 
f 40/40/40 42/42/42 41/41/41 
f 41/41/41 42/42/42 43/43/43 
f 42/42/42 44/44/44 43/43/43 
f 43/43/43 44/44/44 45/45/45 
f 44/44/44 46/46/46 45/45/45 
f 45/45/45 46/46/46 47/47/47 
f 46/46/46 48/48/48 47/47/47 
f 47/47/47 48/48/48 49/49/49 
f 48/48/48 50/50/50 49/49/49 
f 49/49/49 50/50/50 50/50/50 
f 50/50/50 51/51/51 50/50/50 
f 50/50/50 51/51/51 51/51/51 
f 51/51/51 52/52/52 51/51/51 
f 51/51/51 52/52/52 53/53/53 
f 52/52/52 54/54/54 53/53/53 
f 53/53/53 54/54/54 55/55/55 
f 54/54/54 56/56/56 55/55/55 
f 55/55/55 56/56/56 57/57/57 
f 56/56/56 58/58/58 57/57/57 
f 57/57/57 58/58/58 59/59/59 
f 58/58/58 60/60/60 59/59/59 
f 59/59/59 60/60/60 61/61/61 
f 60/60/60 62/62/62 61/61/61 
f 61/61/61 62/62/62 63/63/63 
f 62/62/62 64/64/64 63/63/63 
f 63/63/63 64/64/64 65/65/65 
f 64/64/64 66/66/66 65/65/65 
f 65/65/65 66/66/66 67/67/67 
f 66/66/66 68/68/68 67/67/67 

