mtllib model_89.mtl
o model_89
v -3.273391008377075 -1.0634000301361084 0.014449168927967548 
v 3.350400686264038 -1.0166488885879517 0.001528472057543695 
v -5.690179824829102 0.8222277164459229 0.004315289203077555 
v 5.677679061889648 0.9157298803329468 -0.017725899815559387 
vn 0.0015174545114859939 0.008605912327766418 0.999961793422699 
vn 0.0015174545114859939 0.008605912327766418 0.999961793422699 
vn 0.0015174545114859939 0.008605912327766418 0.999961793422699 
vn 0.0015174545114859939 0.008605912327766418 0.999961793422699 
vt 0.7536457777023315 0.08984219282865524 
vt 0.27066510915756226 0.08655489981174469 
vt 0.9127207398414612 0.897320568561554 
vt 0.09988030046224594 0.902500569820404 
s on 
f 1/1/1 2/2/2 3/3/3 
f 2/2/2 4/4/4 3/3/3 

