mtllib model_6.mtl
o model_6
v -0.0621907003223896 -0.0720938965678215 -7.874019769538165e-10 
v -0.0621907003223896 0.07206761091947556 -7.874019769538165e-10 
v 0.06145358085632324 -0.0720938965678215 -7.874019769538165e-10 
v 0.06145358085632324 0.07206761091947556 -7.874019769538165e-10 
vn -2.0682311115474694e-13 0 -1 
vn -2.0682311115474694e-13 0 -1 
vn -2.0682311115474694e-13 0 -1 
vn -2.0682311115474694e-13 0 -1 
vt 0.8142936825752258 0.5128229856491089 
vt 0.8142936825752258 0.5184112787246704 
vt 0.8120530247688293 0.5128229856491089 
vt 0.8120530247688293 0.5184112787246704 
s on 
f 1/1/1 2/2/2 3/3/3 
f 2/2/2 4/4/4 3/3/3 

