mtllib model_8.mtl
o model_8
v -0.05412609875202179 -0.0601545013487339 -1.3819699828943044e-9 
v -0.05412609875202179 0.07649368792772293 -1.3819699828943044e-9 
v 0.06062132120132446 -0.0601545013487339 -1.3819699828943044e-9 
v 0.06062132120132446 0.07649368792772293 -1.3819699828943044e-9 
vn -2.0682311115474694e-13 0 -1 
vn -2.0682311115474694e-13 0 -1 
vn -2.0682311115474694e-13 0 -1 
vn -2.0682311115474694e-13 0 -1 
vt 0.8927321434020996 0.5122420191764832 
vt 0.8927321434020996 0.5178303122520447 
vt 0.8917480111122131 0.5122420191764832 
vt 0.8917480111122131 0.5178303122520447 
s on 
f 1/1/1 2/2/2 3/3/3 
f 2/2/2 4/4/4 3/3/3 

