mtllib model_54.mtl
o model_54
v 1.0539811849594116 0.40593159198760986 0.21164120733737946 
v 0.41290441155433655 2.804377555847168 -0.8820207715034485 
v -1.0524139404296875 -0.40196600556373596 -0.22582359611988068 
v -1.853760004043579 1.9459863901138306 -1.3437892198562622 
v 0.48159119486808777 -0.376719206571579 -1.0521459579467773 
v -0.31975480914115906 2.046973705291748 -2.024290084838867 
v -0.4800240099430084 0.3554379940032959 1.0622671842575073 
v -1.1211007833480835 2.6781435012817383 -0.20151999592781067 
vn -0.31330806016921997 0.323958158493042 0.8926864862442017 
vn -0.31330806016921997 0.323958158493042 0.8926864862442017 
vn -0.31330806016921997 0.323958158493042 0.8926864862442017 
vn -0.31330806016921997 0.323958158493042 0.8926864862442017 
vn 0.883642852306366 0.38846877217292786 0.2612801790237427 
vn 0.883642852306366 0.38846877217292786 0.2612801790237427 
vn 0.883642852306366 0.38846877217292786 0.2612801790237427 
vn 0.883642852306366 0.38846877217292786 0.2612801790237427 
vt 0.8151389956474304 0.5123623609542847 
vt 0.8163179159164429 0.6497207880020142 
vt 0.8415680527687073 0.5121560096740723 
vt 0.842746913433075 0.6495144367218018 
vt 0.8155913352966309 0.5155951380729675 
vt 0.8167702555656433 0.652953565120697 
vt 0.8420203924179077 0.5153887867927551 
vt 0.8431992530822754 0.6527472138404846 
s on 
f 1/1/1 2/2/2 3/3/3 
f 2/2/2 4/4/4 3/3/3 
f 3/3/3 4/4/4 4/4/4 
f 4/4/4 5/5/5 4/4/4 
f 4/4/4 5/5/5 5/5/5 
f 5/5/5 6/6/6 5/5/5 
f 5/5/5 6/6/6 7/7/7 
f 6/6/6 8/8/8 7/7/7 

