mtllib model_20.mtl
o model_20
v -0.09586309641599655 0.12505464255809784 0.0007482260116375983 
v 0.08116219937801361 0.12505464255809784 0.0007482260116375983 
v -0.09586309641599655 -0.0977948009967804 0.0007482260116375983 
v 0.08116219937801361 -0.0977948009967804 0.0007482260116375983 
vn -2.0682311115474694e-13 0 -1 
vn -2.0682311115474694e-13 0 -1 
vn -2.0682311115474694e-13 0 -1 
vn -2.0682311115474694e-13 0 -1 
vt 0.8741054534912109 0.5135030150413513 
vt 0.8741054534912109 0.5190964341163635 
vt 0.8703320026397705 0.5135030150413513 
vt 0.8703320026397705 0.5190964341163635 
s on 
f 1/1/1 2/2/2 3/3/3 
f 2/2/2 4/4/4 3/3/3 

