mtllib model_74.mtl
o model_74
v 0.5970966219902039 0.5878012776374817 0.7087363004684448 
v -0.5973230004310608 0.5878012776374817 0.7087363004684448 
v 0.5970966219902039 -0.5879989862442017 0.7087363004684448 
v -0.5973230004310608 -0.5879989862442017 0.7087363004684448 
v 0.7087246179580688 0.5878012776374817 -0.5973230004310608 
v 0.7087246179580688 0.5878012776374817 0.5971072912216187 
v 0.7087246179580688 -0.5879989862442017 -0.5973230004310608 
v 0.7087246179580688 -0.5879989862442017 0.5971072912216187 
v -0.7089509963989258 0.5878012776374817 0.5971072912216187 
v -0.7089509963989258 0.5878012776374817 -0.5973230004310608 
v -0.7089509963989258 -0.5879989862442017 0.5971072912216187 
v -0.7089509963989258 -0.5879989862442017 -0.5973230004310608 
v -0.5973230004310608 0.5878012776374817 -0.708952009677887 
v 0.5970966219902039 0.5878012776374817 -0.708952009677887 
v -0.5973230004310608 -0.5879989862442017 -0.708952009677887 
v 0.5970966219902039 -0.5879989862442017 -0.708952009677887 
v -0.5973230004310608 0.5878012776374817 0.7087363004684448 
v -0.7089509963989258 0.5878012776374817 0.5971072912216187 
v -0.5973230004310608 -0.5879989862442017 0.7087363004684448 
v -0.7089509963989258 -0.5879989862442017 0.5971072912216187 
v -0.5973230004310608 -0.5879989862442017 -0.708952009677887 
v -0.7089509963989258 -0.5879989862442017 -0.5973230004310608 
v -0.5973230004310608 0.5878012776374817 -0.708952009677887 
v -0.7089509963989258 0.5878012776374817 -0.5973230004310608 
v 0.7087246179580688 -0.5879989862442017 -0.5973230004310608 
v 0.5970966219902039 -0.5879989862442017 -0.708952009677887 
v 0.7087246179580688 0.5878012776374817 -0.5973230004310608 
v 0.5970966219902039 0.5878012776374817 -0.708952009677887 
v 0.5970966219902039 -0.5879989862442017 0.7087363004684448 
v 0.7087246179580688 -0.5879989862442017 0.5971072912216187 
v 0.5970966219902039 0.5878012776374817 0.7087363004684448 
v 0.7087246179580688 0.5878012776374817 0.5971072912216187 
v -0.49685779213905334 -0.5879989862442017 0.5412927865982056 
v -0.5973230004310608 -0.5879989862442017 0.7087363004684448 
v -0.5415089726448059 -0.5879989862442017 0.4966411888599396 
v -0.7089509963989258 -0.5879989862442017 0.5971072912216187 
v -0.5415089726448059 -0.5879989862442017 -0.4968568980693817 
v -0.7089509963989258 -0.5879989862442017 -0.5973230004310608 
v -0.49685779213905334 -0.5879989862442017 -0.5415084958076477 
v -0.5973230004310608 -0.5879989862442017 -0.708952009677887 
v 0.4966314136981964 -0.5879989862442017 -0.5415084958076477 
v 0.5970966219902039 -0.5879989862442017 -0.708952009677887 
v 0.541282594203949 -0.5879989862442017 -0.4968568980693817 
v 0.7087246179580688 -0.5879989862442017 -0.5973230004310608 
v 0.541282594203949 -0.5879989862442017 0.4966411888599396 
v 0.7087246179580688 -0.5879989862442017 0.5971072912216187 
v 0.4966314136981964 -0.5879989862442017 0.5412927865982056 
v 0.5970966219902039 -0.5879989862442017 0.7087363004684448 
v -0.49685779213905334 -0.5879989862442017 0.5412927865982056 
v -0.5973230004310608 -0.5879989862442017 0.7087363004684448 
v -0.5973230004310608 0.5878012776374817 0.7087363004684448 
v -0.49685779213905334 0.5878012776374817 0.5412927865982056 
v -0.7089509963989258 0.5878012776374817 0.5971072912216187 
v -0.5415089726448059 0.5878012776374817 0.4966411888599396 
v -0.7089509963989258 0.5878012776374817 -0.5973230004310608 
v -0.5415089726448059 0.5878012776374817 -0.4968568980693817 
v -0.5973230004310608 0.5878012776374817 -0.708952009677887 
v -0.49685779213905334 0.5878012776374817 -0.5415084958076477 
v 0.5970966219902039 0.5878012776374817 -0.708952009677887 
v 0.4966314136981964 0.5878012776374817 -0.5415084958076477 
v 0.7087246179580688 0.5878012776374817 -0.5973230004310608 
v 0.541282594203949 0.5878012776374817 -0.4968568980693817 
v 0.7087246179580688 0.5878012776374817 0.5971072912216187 
v 0.541282594203949 0.5878012776374817 0.4966411888599396 
v 0.5970966219902039 0.5878012776374817 0.7087363004684448 
v 0.4966314136981964 0.5878012776374817 0.5412927865982056 
v -0.5973230004310608 0.5878012776374817 0.7087363004684448 
v -0.49685779213905334 0.5878012776374817 0.5412927865982056 
vn 0 0 1 
vn 0 0 1 
vn 0 0 1 
vn 0 0 1 
vn 0.999997615814209 0 0.002184694167226553 
vn 0.999997615814209 0 0.002184694167226553 
vn 0.999997615814209 0 0.002184694167226553 
vn 0.999997615814209 0 0.002184694167226553 
vn -0.999997615814209 -2.0682260971124217e-13 0.002184694167226553 
vn -0.999997615814209 -2.0682260971124217e-13 0.002184694167226553 
vn -0.999997615814209 -2.0682260971124217e-13 0.002184694167226553 
vn -0.999997615814209 -2.0682260971124217e-13 0.002184694167226553 
vn -2.0682311115474694e-13 0 -1 
vn -2.0682311115474694e-13 0 -1 
vn -2.0682311115474694e-13 0 -1 
vn -2.0682311115474694e-13 0 -1 
vn -0.7078787684440613 -1.4640568759497624e-13 0.7063339352607727 
vn -0.7078787684440613 -1.4640568759497624e-13 0.7063339352607727 
vn -0.7078787684440613 -1.4640568759497624e-13 0.7063339352607727 
vn -0.7078787684440613 -1.4640568759497624e-13 0.7063339352607727 
vn -0.7078686952590942 0.0037756471429020166 -0.7063339352607727 
vn -0.7078686952590942 0.0037756471429020166 -0.7063339352607727 
vn -0.7078686952590942 0.0037756471429020166 -0.7063339352607727 
vn -0.7078686952590942 0.0037756471429020166 -0.7063339352607727 
vn 0.7078787684440613 0 -0.7063339352607727 
vn 0.7078787684440613 0 -0.7063339352607727 
vn 0.7078787684440613 0 -0.7063339352607727 
vn 0.7078787684440613 0 -0.7063339352607727 
vn 0.7078787684440613 0 0.7063339352607727 
vn 0.7078787684440613 0 0.7063339352607727 
vn 0.7078787684440613 0 0.7063339352607727 
vn 0.7078787684440613 0 0.7063339352607727 
vn 3.097898456858039e-13 -0.999997615814209 0.002184694167226553 
vn 3.097898456858039e-13 -0.999997615814209 0.002184694167226553 
vn 3.097898456858039e-13 -0.999997615814209 0.002184694167226553 
vn 3.097898456858039e-13 -0.999997615814209 0.002184694167226553 
vn 3.097898456858039e-13 -0.999997615814209 0.002184694167226553 
vn 3.097898456858039e-13 -0.999997615814209 0.002184694167226553 
vn 3.097898456858039e-13 -0.999997615814209 0.002184694167226553 
vn 3.097898456858039e-13 -0.999997615814209 0.002184694167226553 
vn 3.097898456858039e-13 -0.999997615814209 0.002184694167226553 
vn 3.097898456858039e-13 -0.999997615814209 0.002184694167226553 
vn 3.097898456858039e-13 -0.999997615814209 0.002184694167226553 
vn 3.097898456858039e-13 -0.999997615814209 0.002184694167226553 
vn 3.097898456858039e-13 -0.999997615814209 0.002184694167226553 
vn 3.097898456858039e-13 -0.999997615814209 0.002184694167226553 
vn 3.097898456858039e-13 -0.999997615814209 0.002184694167226553 
vn 3.097898456858039e-13 -0.999997615814209 0.002184694167226553 
vn 3.097898456858039e-13 -0.999997615814209 0.002184694167226553 
vn 3.097898456858039e-13 -0.999997615814209 0.002184694167226553 
vn -1.0341130485562108e-13 0.999997615814209 0.002184694167226553 
vn -1.0341130485562108e-13 0.999997615814209 0.002184694167226553 
vn -1.0341130485562108e-13 0.999997615814209 0.002184694167226553 
vn -1.0341130485562108e-13 0.999997615814209 0.002184694167226553 
vn -1.0341130485562108e-13 0.999997615814209 0.002184694167226553 
vn -1.0341130485562108e-13 0.999997615814209 0.002184694167226553 
vn -1.0341130485562108e-13 0.999997615814209 0.002184694167226553 
vn -1.0341130485562108e-13 0.999997615814209 0.002184694167226553 
vn -1.0341130485562108e-13 0.999997615814209 0.002184694167226553 
vn -1.0341130485562108e-13 0.999997615814209 0.002184694167226553 
vn -1.0341130485562108e-13 0.999997615814209 0.002184694167226553 
vn -1.0341130485562108e-13 0.999997615814209 0.002184694167226553 
vn -1.0341130485562108e-13 0.999997615814209 0.002184694167226553 
vn -1.0341130485562108e-13 0.999997615814209 0.002184694167226553 
vn -1.0341130485562108e-13 0.999997615814209 0.002184694167226553 
vn -1.0341130485562108e-13 0.999997615814209 0.002184694167226553 
vn -1.0341130485562108e-13 0.999997615814209 0.002184694167226553 
vn -1.0341130485562108e-13 0.999997615814209 0.002184694167226553 
vt 0.5217183828353882 0.12372113764286041 
vt 0.49121686816215515 0.13150815665721893 
vt 0.5193763375282288 0.05355047062039375 
vt 0.48936501145362854 0.05753147602081299 
vt 0.5439409613609314 0.12218998372554779 
vt 0.523951530456543 0.12144628167152405 
vt 0.5427426695823669 0.05241304263472557 
vt 0.5220996737480164 0.05442541837692261 
vt 0.5946497321128845 0.12149002403020859 
vt 0.5691591501235962 0.11917141824960709 
vt 0.5965015888214111 0.05556284636259079 
vt 0.5675796270370483 0.055825330317020416 
vt 0.5669260025024414 0.11947765201330185 
vt 0.5460106730461121 0.12262745946645737 
vt 0.5654009580612183 0.055475350469350815 
vt 0.5447579622268677 0.05201931670308113 
vt 0.5986802577972412 0.12455233931541443 
vt 0.5946497321128845 0.12149002403020859 
vt 0.6008589267730713 0.053900450468063354 
vt 0.5965015888214111 0.05556284636259079 
vt 0.5654009580612183 0.055475350469350815 
vt 0.5675796270370483 0.055825330317020416 
vt 0.5669260025024414 0.11947765201330185 
vt 0.5691591501235962 0.11917141824960709 
vt 0.5427426695823669 0.05241304263472557 
vt 0.5447579622268677 0.05201931670308113 
vt 0.5439409613609314 0.12218998372554779 
vt 0.5460106730461121 0.12262745946645737 
vt 0.5193763375282288 0.05355047062039375 
vt 0.5220996737480164 0.05442541837692261 
vt 0.5217183828353882 0.12372113764286041 
vt 0.523951530456543 0.12144628167152405 
vt 0.6003142595291138 0.04615717753767967 
vt 0.6008589267730713 0.053900450468063354 
vt 0.5987347364425659 0.04900075122714043 
vt 0.5965015888214111 0.05556284636259079 
vt 0.5680153369903564 0.04685713350772858 
vt 0.5675796270370483 0.055825330317020416 
vt 0.5659456253051758 0.04567595571279526 
vt 0.5654009580612183 0.055475350469350815 
vt 0.5444856286048889 0.04497599974274635 
vt 0.5447579622268677 0.05201931670308113 
vt 0.5429060459136963 0.04558846354484558 
vt 0.5427426695823669 0.05241304263472557 
vt 0.523080050945282 0.04891325533390045 
vt 0.5220996737480164 0.05442541837692261 
vt 0.5212281942367554 0.04781957343220711 
vt 0.5193763375282288 0.05355047062039375 
vt 0.4896917939186096 0.04646340757608414 
vt 0.48936501145362854 0.05753147602081299 
vt 0.5986802577972412 0.12455233931541443 
vt 0.596065878868103 0.1343517303466797 
vt 0.5946497321128845 0.12149002403020859 
vt 0.5948675870895386 0.13050197064876556 
vt 0.5691591501235962 0.11917141824960709 
vt 0.5692136287689209 0.1312456727027893 
vt 0.5669260025024414 0.11947765201330185 
vt 0.5674706697463989 0.13155190646648407 
vt 0.5460106730461121 0.12262745946645737 
vt 0.5464464426040649 0.13430798053741455 
vt 0.5439409613609314 0.12218998372554779 
vt 0.5447579622268677 0.1335642784833908 
vt 0.523951530456543 0.12144628167152405 
vt 0.5248774886131287 0.12936453521251678 
vt 0.5217183828353882 0.12372113764286041 
vt 0.5232979655265808 0.12988950312137604 
vt 0.49121686816215515 0.13150815665721893 
vt 0.4923606812953949 0.13452672958374023 
s on 
f 1/1/1 2/2/2 3/3/3 
f 2/2/2 4/4/4 3/3/3 
f 3/3/3 4/4/4 4/4/4 
f 4/4/4 5/5/5 4/4/4 
f 4/4/4 5/5/5 5/5/5 
f 5/5/5 6/6/6 5/5/5 
f 5/5/5 6/6/6 7/7/7 
f 6/6/6 8/8/8 7/7/7 
f 7/7/7 8/8/8 8/8/8 
f 8/8/8 9/9/9 8/8/8 
f 8/8/8 9/9/9 9/9/9 
f 9/9/9 10/10/10 9/9/9 
f 9/9/9 10/10/10 11/11/11 
f 10/10/10 12/12/12 11/11/11 
f 11/11/11 12/12/12 12/12/12 
f 12/12/12 13/13/13 12/12/12 
f 12/12/12 13/13/13 13/13/13 
f 13/13/13 14/14/14 13/13/13 
f 13/13/13 14/14/14 15/15/15 
f 14/14/14 16/16/16 15/15/15 
f 15/15/15 16/16/16 16/16/16 
f 16/16/16 17/17/17 16/16/16 
f 16/16/16 17/17/17 17/17/17 
f 17/17/17 18/18/18 17/17/17 
f 17/17/17 18/18/18 19/19/19 
f 18/18/18 20/20/20 19/19/19 
f 19/19/19 20/20/20 20/20/20 
f 20/20/20 21/21/21 20/20/20 
f 20/20/20 21/21/21 21/21/21 
f 21/21/21 22/22/22 21/21/21 
f 21/21/21 22/22/22 23/23/23 
f 22/22/22 24/24/24 23/23/23 
f 23/23/23 24/24/24 24/24/24 
f 24/24/24 25/25/25 24/24/24 
f 24/24/24 25/25/25 25/25/25 
f 25/25/25 26/26/26 25/25/25 
f 25/25/25 26/26/26 27/27/27 
f 26/26/26 28/28/28 27/27/27 
f 27/27/27 28/28/28 28/28/28 
f 28/28/28 29/29/29 28/28/28 
f 28/28/28 29/29/29 29/29/29 
f 29/29/29 30/30/30 29/29/29 
f 29/29/29 30/30/30 31/31/31 
f 30/30/30 32/32/32 31/31/31 
f 31/31/31 32/32/32 32/32/32 
f 32/32/32 33/33/33 32/32/32 
f 32/32/32 33/33/33 33/33/33 
f 33/33/33 34/34/34 33/33/33 
f 33/33/33 34/34/34 35/35/35 
f 34/34/34 36/36/36 35/35/35 
f 35/35/35 36/36/36 37/37/37 
f 36/36/36 38/38/38 37/37/37 
f 37/37/37 38/38/38 39/39/39 
f 38/38/38 40/40/40 39/39/39 
f 39/39/39 40/40/40 41/41/41 
f 40/40/40 42/42/42 41/41/41 
f 41/41/41 42/42/42 43/43/43 
f 42/42/42 44/44/44 43/43/43 
f 43/43/43 44/44/44 45/45/45 
f 44/44/44 46/46/46 45/45/45 
f 45/45/45 46/46/46 47/47/47 
f 46/46/46 48/48/48 47/47/47 
f 47/47/47 48/48/48 49/49/49 
f 48/48/48 50/50/50 49/49/49 
f 49/49/49 50/50/50 50/50/50 
f 50/50/50 51/51/51 50/50/50 
f 50/50/50 51/51/51 51/51/51 
f 51/51/51 52/52/52 51/51/51 
f 51/51/51 52/52/52 53/53/53 
f 52/52/52 54/54/54 53/53/53 
f 53/53/53 54/54/54 55/55/55 
f 54/54/54 56/56/56 55/55/55 
f 55/55/55 56/56/56 57/57/57 
f 56/56/56 58/58/58 57/57/57 
f 57/57/57 58/58/58 59/59/59 
f 58/58/58 60/60/60 59/59/59 
f 59/59/59 60/60/60 61/61/61 
f 60/60/60 62/62/62 61/61/61 
f 61/61/61 62/62/62 63/63/63 
f 62/62/62 64/64/64 63/63/63 
f 63/63/63 64/64/64 65/65/65 
f 64/64/64 66/66/66 65/65/65 
f 65/65/65 66/66/66 67/67/67 
f 66/66/66 68/68/68 67/67/67 

