mtllib model_59.mtl
o model_59
v 0.031235799193382263 0.40593159198760986 1.0762698650360107 
v 0.9418753981590271 2.804377555847168 0.19764040410518646 
v -0.016692599281668663 -0.40196600556373596 -1.0826482772827148 
v 0.8939470052719116 1.9459863901138306 -2.1119000911712646 
v -0.06462100148200989 2.6781435012817383 -1.1579593420028687 
v 1.900443434715271 2.046973705291748 -0.7563002109527588 
v -1.1430100202560425 0.3554379940032959 -0.22912250459194183 
v 1.1335890293121338 -0.376719206571579 0.22274410724639893 
vn -0.9402129650115967 0.32613733410835266 -0.0981530249118805 
vn -0.9402129650115967 0.32613733410835266 -0.0981530249118805 
vn -0.9402129650115967 0.32613733410835266 -0.0981530249118805 
vn -0.9402129650115967 0.32613733410835266 -0.0981530249118805 
vn 0.05284297093749046 -0.39171409606933594 -0.9185682535171509 
vn 0.05284297093749046 -0.39171409606933594 -0.9185682535171509 
vn 0.05284297093749046 -0.39171409606933594 -0.9185682535171509 
vn 0.05284297093749046 -0.39171409606933594 -0.9185682535171509 
vt 0.8151389956474304 0.5123623609542847 
vt 0.8163179159164429 0.6497207880020142 
vt 0.8415680527687073 0.5121560096740723 
vt 0.842746913433075 0.6495144367218018 
vt 0.8431992530822754 0.6527472138404846 
vt 0.8167702555656433 0.652953565120697 
vt 0.8420203924179077 0.5153887867927551 
vt 0.8155913352966309 0.5155951380729675 
s on 
f 1/1/1 2/2/2 3/3/3 
f 2/2/2 4/4/4 3/3/3 
f 3/3/3 4/4/4 4/4/4 
f 4/4/4 5/5/5 4/4/4 
f 4/4/4 5/5/5 5/5/5 
f 5/5/5 6/6/6 5/5/5 
f 5/5/5 6/6/6 7/7/7 
f 6/6/6 8/8/8 7/7/7 

