mtllib model_55.mtl
o model_55
v -0.08522249758243561 0 0.3922986388206482 
v -0.08522249758243561 1.3336905241012573 0.3922986388206482 
v 0.08522283285856247 0 -0.3923009932041168 
v 0.08522283285856247 1.3336905241012573 -0.3923009932041168 
v -0.4008620083332062 1.3336905241012573 -0.02780194953083992 
v 0.40086233615875244 1.3336905241012573 0.02779960073530674 
v -0.4008620083332062 0 -0.02780194953083992 
v 0.40086233615875244 0 0.02779960073530674 
vn -0.9766941666603088 0.0037741579581052065 -0.21460255980491638 
vn -0.9766941666603088 0.0037741579581052065 -0.21460255980491638 
vn -0.9766941666603088 0.0037741579581052065 -0.21460255980491638 
vn -0.9766941666603088 0.0037741579581052065 -0.21460255980491638 
vn 0.06549396365880966 0 -0.9978529810905457 
vn 0.06549396365880966 0 -0.9978529810905457 
vn 0.06549396365880966 0 -0.9978529810905457 
vn 0.06549396365880966 0 -0.9978529810905457 
vt 0.7875815033912659 0.5121909976005554 
vt 0.7875815033912659 0.5617601275444031 
vt 0.7163519859313965 0.5121909976005554 
vt 0.7163519859313965 0.5617601275444031 
vt 0.7163519859313965 0.5617601275444031 
vt 0.7875815033912659 0.5617601275444031 
vt 0.7163519859313965 0.5121909976005554 
vt 0.7875815033912659 0.5121909976005554 
s on 
f 1/1/1 2/2/2 3/3/3 
f 2/2/2 4/4/4 3/3/3 
f 3/3/3 4/4/4 4/4/4 
f 4/4/4 5/5/5 4/4/4 
f 4/4/4 5/5/5 5/5/5 
f 5/5/5 6/6/6 5/5/5 
f 5/5/5 6/6/6 7/7/7 
f 6/6/6 8/8/8 7/7/7 

