mtllib model_28.mtl
o model_28
v -0.2604036331176758 0.6396278142929077 -0.14146719872951508 
v -0.2604036331176758 0.6396278142929077 0.14128099381923676 
v -0.2773360013961792 -0.6351609826087952 -0.14146719872951508 
v -0.2773360013961792 -0.6351609826087952 0.14128099381923676 
v 0.26026642322540283 0.74586021900177 -0.7807239890098572 
v -0.1164785772562027 0.6750385761260986 -0.4610956013202667 
v 0.23910097777843475 -0.7531970143318176 -0.7807239890098572 
v -0.13341094553470612 -0.6705718040466309 -0.4610956013202667 
v -0.1164785772562027 0.6750385761260986 0.4609093964099884 
v 0.26026642322540283 0.74586021900177 0.7805377840995789 
v -0.13341094553470612 -0.6705718040466309 0.4609093964099884 
v 0.23910097777843475 -0.7531970143318176 0.7805377840995789 
vn 0.9998835325241089 -0.015103200450539589 0.002184694167226553 
vn 0.9998835325241089 -0.015103200450539589 0.002184694167226553 
vn 0.9998835325241089 -0.015103200450539589 0.002184694167226553 
vn 0.9998835325241089 -0.015103200450539589 0.002184694167226553 
vn 0.6567664742469788 -0.007544363848865032 0.7540562748908997 
vn 0.6567664742469788 -0.007544363848865032 0.7540562748908997 
vn 0.6567664742469788 -0.007544363848865032 0.7540562748908997 
vn 0.6567664742469788 -0.007544363848865032 0.7540562748908997 
vn 0.6567663550376892 -0.0075581809505820274 -0.7540562748908997 
vn 0.6567663550376892 -0.0075581809505820274 -0.7540562748908997 
vn 0.6567663550376892 -0.0075581809505820274 -0.7540562748908997 
vn 0.6567663550376892 -0.0075581809505820274 -0.7540562748908997 
vt 0.921995997428894 0.5127843618392944 
vt 0.9227227568626404 0.5127843618392944 
vt 0.921995997428894 0.5178766250610352 
vt 0.9227227568626404 0.5178766250610352 
vt 0.9295544028282166 0.5184531211853027 
vt 0.9275194406509399 0.51811683177948 
vt 0.9295544028282166 0.5124961137771606 
vt 0.9275194406509399 0.5127843618392944 
vt 0.9240309596061707 0.5126882791519165 
vt 0.9259932041168213 0.5123519897460938 
vt 0.9240309596061707 0.518020749092102 
vt 0.9259932041168213 0.5183089971542358 
s on 
f 1/1/1 2/2/2 3/3/3 
f 2/2/2 4/4/4 3/3/3 
f 3/3/3 4/4/4 4/4/4 
f 4/4/4 5/5/5 4/4/4 
f 4/4/4 5/5/5 5/5/5 
f 5/5/5 6/6/6 5/5/5 
f 5/5/5 6/6/6 7/7/7 
f 6/6/6 8/8/8 7/7/7 
f 7/7/7 8/8/8 8/8/8 
f 8/8/8 9/9/9 8/8/8 
f 8/8/8 9/9/9 9/9/9 
f 9/9/9 10/10/10 9/9/9 
f 9/9/9 10/10/10 11/11/11 
f 10/10/10 12/12/12 11/11/11 

