mtllib model_45.mtl
o model_45
v 39.962867736816406 0 36.51329040527344 
v 39.962867736816406 0 -11.877623558044434 
v -39.962806701660156 0 36.51329040527344 
v -39.962806701660156 0 -11.877623558044434 
vn -2.104520696572616e-15 0.036870893090963364 0.00006894933903822675 
vn -2.104520696572616e-15 0.036870893090963364 0.00006894933903822675 
vn -2.104520696572616e-15 0.036870893090963364 0.00006894933903822675 
vn -2.104520696572616e-15 0.036870893090963364 0.00006894933903822675 
vt 1.0000005960464478 0.8646388649940491 
vt 0 0.8646388649940491 
vt 1.0000005960464478 0 
vt 0 0 
s on 
f 1/1/1 2/2/2 3/3/3 
f 2/2/2 4/4/4 3/3/3 

