mtllib model_39.mtl
o model_39
v 0.5970945954322815 0.5878092646598816 0.7087363004684448 
v -0.5973250269889832 0.5878092646598816 0.7087363004684448 
v 0.5970945954322815 -0.5879909992218018 0.7087363004684448 
v -0.5973250269889832 -0.5879909992218018 0.7087363004684448 
v 0.7087225914001465 0.5878092646598816 -0.5973230004310608 
v 0.7087225914001465 0.5878092646598816 0.5971072912216187 
v 0.7087225914001465 -0.5879909992218018 -0.5973230004310608 
v 0.7087225914001465 -0.5879909992218018 0.5971072912216187 
v -0.7089530229568481 0.5878092646598816 0.5971072912216187 
v -0.7089530229568481 0.5878092646598816 -0.5973230004310608 
v -0.7089530229568481 -0.5879909992218018 0.5971072912216187 
v -0.7089530229568481 -0.5879909992218018 -0.5973230004310608 
v -0.5973250269889832 0.5878092646598816 -0.708952009677887 
v 0.5970945954322815 0.5878092646598816 -0.708952009677887 
v -0.5973250269889832 -0.5879909992218018 -0.708952009677887 
v 0.5970945954322815 -0.5879909992218018 -0.708952009677887 
v -0.5973250269889832 0.5878092646598816 0.7087363004684448 
v -0.7089530229568481 0.5878092646598816 0.5971072912216187 
v -0.5973250269889832 -0.5879909992218018 0.7087363004684448 
v -0.7089530229568481 -0.5879909992218018 0.5971072912216187 
v -0.5973250269889832 -0.5879909992218018 -0.708952009677887 
v -0.7089530229568481 -0.5879909992218018 -0.5973230004310608 
v -0.5973250269889832 0.5878092646598816 -0.708952009677887 
v -0.7089530229568481 0.5878092646598816 -0.5973230004310608 
v 0.7087225914001465 -0.5879909992218018 -0.5973230004310608 
v 0.5970945954322815 -0.5879909992218018 -0.708952009677887 
v 0.7087225914001465 0.5878092646598816 -0.5973230004310608 
v 0.5970945954322815 0.5878092646598816 -0.708952009677887 
v 0.5970945954322815 -0.5879909992218018 0.7087363004684448 
v 0.7087225914001465 -0.5879909992218018 0.5971072912216187 
v 0.5970945954322815 0.5878092646598816 0.7087363004684448 
v 0.7087225914001465 0.5878092646598816 0.5971072912216187 
vn 0 0 1 
vn 0 0 1 
vn 0 0 1 
vn 0 0 1 
vn 0.999997615814209 0 0.002184694167226553 
vn 0.999997615814209 0 0.002184694167226553 
vn 0.999997615814209 0 0.002184694167226553 
vn 0.999997615814209 0 0.002184694167226553 
vn -0.999997615814209 -2.0682260971124217e-13 0.002184694167226553 
vn -0.999997615814209 -2.0682260971124217e-13 0.002184694167226553 
vn -0.999997615814209 -2.0682260971124217e-13 0.002184694167226553 
vn -0.999997615814209 -2.0682260971124217e-13 0.002184694167226553 
vn -2.0682311115474694e-13 0 -1 
vn -2.0682311115474694e-13 0 -1 
vn -2.0682311115474694e-13 0 -1 
vn -2.0682311115474694e-13 0 -1 
vn -0.7078787684440613 -1.4640568759497624e-13 0.7063339352607727 
vn -0.7078787684440613 -1.4640568759497624e-13 0.7063339352607727 
vn -0.7078787684440613 -1.4640568759497624e-13 0.7063339352607727 
vn -0.7078787684440613 -1.4640568759497624e-13 0.7063339352607727 
vn -0.7078686952590942 0.0037756471429020166 -0.7063339352607727 
vn -0.7078686952590942 0.0037756471429020166 -0.7063339352607727 
vn -0.7078686952590942 0.0037756471429020166 -0.7063339352607727 
vn -0.7078686952590942 0.0037756471429020166 -0.7063339352607727 
vn 0.7078787684440613 0 -0.7063339352607727 
vn 0.7078787684440613 0 -0.7063339352607727 
vn 0.7078787684440613 0 -0.7063339352607727 
vn 0.7078787684440613 0 -0.7063339352607727 
vn 0.7078787684440613 0 0.7063339352607727 
vn 0.7078787684440613 0 0.7063339352607727 
vn 0.7078787684440613 0 0.7063339352607727 
vn 0.7078787684440613 0 0.7063339352607727 
vt 0.5514893531799316 0.3206848204135895 
vt 0.539795994758606 0.3206848204135895 
vt 0.5514893531799316 0.3092019855976105 
vt 0.539795994758606 0.3092019855976105 
vt 0.564734935760498 0.3206848204135895 
vt 0.5530415773391724 0.3206848204135895 
vt 0.564734935760498 0.3092019855976105 
vt 0.5530415773391724 0.3092019855976105 
vt 0.591122567653656 0.3206848204135895 
vt 0.5794292092323303 0.3206848204135895 
vt 0.591122567653656 0.3092019855976105 
vt 0.5794292092323303 0.3092019855976105 
vt 0.5779805183410645 0.3206848204135895 
vt 0.5662871599197388 0.3206848204135895 
vt 0.5779805183410645 0.3092019855976105 
vt 0.5662871599197388 0.3092019855976105 
vt 0.5926747918128967 0.3206848204135895 
vt 0.591122567653656 0.3206848204135895 
vt 0.5926747918128967 0.3092019855976105 
vt 0.591122567653656 0.3092019855976105 
vt 0.5779805183410645 0.3092019855976105 
vt 0.5794292092323303 0.3092019855976105 
vt 0.5779805183410645 0.3206848204135895 
vt 0.5794292092323303 0.3206848204135895 
vt 0.564734935760498 0.3092019855976105 
vt 0.5662871599197388 0.3092019855976105 
vt 0.564734935760498 0.3206848204135895 
vt 0.5662871599197388 0.3206848204135895 
vt 0.5514893531799316 0.3092019855976105 
vt 0.5530415773391724 0.3092019855976105 
vt 0.5514893531799316 0.3206848204135895 
vt 0.5530415773391724 0.3206848204135895 
s on 
f 1/1/1 2/2/2 3/3/3 
f 2/2/2 4/4/4 3/3/3 
f 3/3/3 4/4/4 4/4/4 
f 4/4/4 5/5/5 4/4/4 
f 4/4/4 5/5/5 5/5/5 
f 5/5/5 6/6/6 5/5/5 
f 5/5/5 6/6/6 7/7/7 
f 6/6/6 8/8/8 7/7/7 
f 7/7/7 8/8/8 8/8/8 
f 8/8/8 9/9/9 8/8/8 
f 8/8/8 9/9/9 9/9/9 
f 9/9/9 10/10/10 9/9/9 
f 9/9/9 10/10/10 11/11/11 
f 10/10/10 12/12/12 11/11/11 
f 11/11/11 12/12/12 12/12/12 
f 12/12/12 13/13/13 12/12/12 
f 12/12/12 13/13/13 13/13/13 
f 13/13/13 14/14/14 13/13/13 
f 13/13/13 14/14/14 15/15/15 
f 14/14/14 16/16/16 15/15/15 
f 15/15/15 16/16/16 16/16/16 
f 16/16/16 17/17/17 16/16/16 
f 16/16/16 17/17/17 17/17/17 
f 17/17/17 18/18/18 17/17/17 
f 17/17/17 18/18/18 19/19/19 
f 18/18/18 20/20/20 19/19/19 
f 19/19/19 20/20/20 20/20/20 
f 20/20/20 21/21/21 20/20/20 
f 20/20/20 21/21/21 21/21/21 
f 21/21/21 22/22/22 21/21/21 
f 21/21/21 22/22/22 23/23/23 
f 22/22/22 24/24/24 23/23/23 
f 23/23/23 24/24/24 24/24/24 
f 24/24/24 25/25/25 24/24/24 
f 24/24/24 25/25/25 25/25/25 
f 25/25/25 26/26/26 25/25/25 
f 25/25/25 26/26/26 27/27/27 
f 26/26/26 28/28/28 27/27/27 
f 27/27/27 28/28/28 28/28/28 
f 28/28/28 29/29/29 28/28/28 
f 28/28/28 29/29/29 29/29/29 
f 29/29/29 30/30/30 29/29/29 
f 29/29/29 30/30/30 31/31/31 
f 30/30/30 32/32/32 31/31/31 

