mtllib model_53.mtl
o model_53
v 2.1925933361053467 1.9459863901138306 0.6653839945793152 
v -0.09241040050983429 2.804377555847168 0.9696230292320251 
v 1.062928557395935 -0.40196600556373596 -0.13031800091266632 
v -1.0680299997329712 0.40593159198760986 0.12711499631404877 
v -0.11808460205793381 -0.376719206571579 1.1568470001220703 
v 0.9602317810058594 2.046973705291748 1.8121310472488403 
v 0.11298319697380066 0.3554379940032959 -1.1600500345230103 
v 1.139951229095459 2.6781435012817383 -0.1771239936351776 
vn -0.005627041682600975 -0.3259556293487549 0.9453682899475098 
vn -0.005627041682600975 -0.3259556293487549 0.9453682899475098 
vn -0.005627041682600975 -0.3259556293487549 0.9453682899475098 
vn -0.005627041682600975 -0.3259556293487549 0.9453682899475098 
vn -0.9201699495315552 0.38931387662887573 0.04149730131030083 
vn -0.9201699495315552 0.38931387662887573 0.04149730131030083 
vn -0.9201699495315552 0.38931387662887573 0.04149730131030083 
vn -0.9201699495315552 0.38931387662887573 0.04149730131030083 
vt 0.842746913433075 0.6495144367218018 
vt 0.8163179159164429 0.6497207880020142 
vt 0.8415680527687073 0.5121560096740723 
vt 0.8151389956474304 0.5123623609542847 
vt 0.8155913352966309 0.5155951380729675 
vt 0.8167702555656433 0.652953565120697 
vt 0.8420203924179077 0.5153887867927551 
vt 0.8431992530822754 0.6527472138404846 
s on 
f 1/1/1 2/2/2 3/3/3 
f 2/2/2 4/4/4 3/3/3 
f 3/3/3 4/4/4 4/4/4 
f 4/4/4 5/5/5 4/4/4 
f 4/4/4 5/5/5 5/5/5 
f 5/5/5 6/6/6 5/5/5 
f 5/5/5 6/6/6 7/7/7 
f 6/6/6 8/8/8 7/7/7 

