mtllib model_88.mtl
o model_88
v -0.05412609875202179 -0.0601545013487339 -1.3819699828943044e-9 
v -0.05412609875202179 0.07649368792772293 -1.3819699828943044e-9 
v 0.06062132120132446 -0.0601545013487339 -1.3819699828943044e-9 
v 0.06062132120132446 0.07649368792772293 -1.3819699828943044e-9 
vn -2.0682311115474694e-13 0 -1 
vn -2.0682311115474694e-13 0 -1 
vn -2.0682311115474694e-13 0 -1 
vn -2.0682311115474694e-13 0 -1 
vt 0.6486284136772156 0.6528670191764832 
vt 0.6486284136772156 0.6584789156913757 
vt 0.6476070284843445 0.6528670191764832 
vt 0.6476070284843445 0.6584789156913757 
s on 
f 1/1/1 2/2/2 3/3/3 
f 2/2/2 4/4/4 3/3/3 

