mtllib model_92.mtl
o model_92
v -2.1057631969451904 -0.13336299359798431 0.04428789019584656 
v 1.9288721084594727 -0.07288870215415955 0.024713750928640366 
v -3.577860116958618 2.305767059326172 0.03450081869959831 
v 3.3464467525482178 2.426715612411499 0.005139609798789024 
v -1.0698434114456177 0.06821800023317337 -0.014434530399739742 
v 1.1655627489089966 0.10853420197963715 -0.0535828098654747 
v -1.8876749277114868 1.2575459480285645 -1.1301604509353638 
v 1.9833941459655762 1.2978620529174805 -1.1986700296401978 
vn 0.0015174545114859939 0.008605912327766418 0.999961793422699 
vn 0.0015174545114859939 0.008605912327766418 0.999961793422699 
vn 0.0015174545114859939 0.008605912327766418 0.999961793422699 
vn 0.0015174545114859939 0.008605912327766418 0.999961793422699 
vn 0.003771644551306963 0.6891098022460938 0.7246471047401428 
vn 0.003771644551306963 0.6891098022460938 0.7246471047401428 
vn 0.003771644551306963 0.6891098022460938 0.7246471047401428 
vn 0.003771644551306963 0.6891098022460938 0.7246471047401428 
vt 0.7536457777023315 0.08984219282865524 
vt 0.27066510915756226 0.08655489981174469 
vt 0.9127207398414612 0.897320568561554 
vt 0.09988030046224594 0.902500569820404 
vt 0.7536457777023315 0.08984219282865524 
vt 0.27066510915756226 0.08655489981174469 
vt 0.9127207398414612 0.897320568561554 
vt 0.09988030046224594 0.902500569820404 
s on 
f 1/1/1 2/2/2 3/3/3 
f 2/2/2 4/4/4 3/3/3 
f 3/3/3 4/4/4 4/4/4 
f 4/4/4 5/5/5 4/4/4 
f 4/4/4 5/5/5 5/5/5 
f 5/5/5 6/6/6 5/5/5 
f 5/5/5 6/6/6 7/7/7 
f 6/6/6 8/8/8 7/7/7 

