mtllib model_91.mtl
o model_91
v -1.3102772235870361 -0.018420200794935226 0.013226930052042007 
v 1.4499083757400513 0.03715270012617111 -0.024858610704541206 
v -2.6903700828552246 2.204495906829834 -0.7230935096740723 
v 2.7868733406066895 2.3341658115386963 -0.792917013168335 
vn 0.0037600426003336906 0.31356194615364075 0.949560284614563 
vn 0.0037600426003336906 0.31356194615364075 0.949560284614563 
vn 0.0037600426003336906 0.31356194615364075 0.949560284614563 
vn 0.0037600426003336906 0.31356194615364075 0.949560284614563 
vt 0.7536457777023315 0.08984219282865524 
vt 0.27066510915756226 0.08655489981174469 
vt 0.9127207398414612 0.897320568561554 
vt 0.09988030046224594 0.902500569820404 
s on 
f 1/1/1 2/2/2 3/3/3 
f 2/2/2 4/4/4 3/3/3 

