mtllib model_68.mtl
o model_68
v -1.4538931846618652 1.895617961883545 -1.0724400281906128 
v -1.2144848108291626 2.2848498821258545 0.3644646108150482 
v -0.11719629913568497 -0.20191000401973724 -0.7202575206756592 
v 0.12221209704875946 0.1873220056295395 0.7166470885276794 
v -1.93271005153656 1.7442500591278076 -0.04406709969043732 
v -0.7356680035591125 2.4145939350128174 -0.6639083027839661 
v -0.5960131287574768 -0.33165401220321655 0.3081153929233551 
v 0.6010289192199707 0.33869001269340515 -0.31172579526901245 
vn 0.8329872488975525 0.4831058979034424 -0.26970529556274414 
vn 0.8329872488975525 0.4831058979034424 -0.26970529556274414 
vn 0.8329872488975525 0.4831058979034424 -0.26970529556274414 
vn 0.8329872488975525 0.4831058979034424 -0.26970529556274414 
vn -0.2812212407588959 -0.33188357949256897 -0.9004265069961548 
vn -0.2812212407588959 -0.33188357949256897 -0.9004265069961548 
vn -0.2812212407588959 -0.33188357949256897 -0.9004265069961548 
vn -0.2812212407588959 -0.33188357949256897 -0.9004265069961548 
vt 0.7163519859313965 0.5617601275444031 
vt 0.7875815033912659 0.5617601275444031 
vt 0.7163519859313965 0.5121909976005554 
vt 0.7875815033912659 0.5121909976005554 
vt 0.7163519859313965 0.5617601275444031 
vt 0.7875815033912659 0.5617601275444031 
vt 0.7163519859313965 0.5121909976005554 
vt 0.7875815033912659 0.5121909976005554 
s on 
f 1/1/1 2/2/2 3/3/3 
f 2/2/2 4/4/4 3/3/3 
f 3/3/3 4/4/4 4/4/4 
f 4/4/4 5/5/5 4/4/4 
f 4/4/4 5/5/5 5/5/5 
f 5/5/5 6/6/6 5/5/5 
f 5/5/5 6/6/6 7/7/7 
f 6/6/6 8/8/8 7/7/7 

