mtllib model_61.mtl
o model_61
v 0.08473636955022812 0 0.39261457324028015 
v 0.08473636955022812 1.3336905241012573 0.39261457324028015 
v -0.08473750203847885 0 -0.3926149904727936 
v -0.08473750203847885 1.3336905241012573 -0.3926149904727936 
v 0.39857685565948486 0 -0.05255495011806488 
v 0.39857685565948486 1.3336905241012573 -0.05255495011806488 
v -0.3985779881477356 0 0.05255452170968056 
v -0.3985779881477356 1.3336905241012573 0.05255452170968056 
vn -0.9776298403739929 -2.0219644101399092e-13 0.2103329300880432 
vn -0.9776298403739929 -2.0219644101399092e-13 0.2103329300880432 
vn -0.9776298403739929 -2.0219644101399092e-13 0.2103329300880432 
vn -0.9776298403739929 -2.0219644101399092e-13 0.2103329300880432 
vn 0.1263735443353653 0 0.9919826984405518 
vn 0.1263735443353653 0 0.9919826984405518 
vn 0.1263735443353653 0 0.9919826984405518 
vn 0.1263735443353653 0 0.9919826984405518 
vt 0.7875815033912659 0.5121909976005554 
vt 0.7875815033912659 0.5617601275444031 
vt 0.7163519859313965 0.5121909976005554 
vt 0.7163519859313965 0.5617601275444031 
vt 0.7875815033912659 0.5121909976005554 
vt 0.7875815033912659 0.5617601275444031 
vt 0.7163519859313965 0.5121909976005554 
vt 0.7163519859313965 0.5617601275444031 
s on 
f 1/1/1 2/2/2 3/3/3 
f 2/2/2 4/4/4 3/3/3 
f 3/3/3 4/4/4 4/4/4 
f 4/4/4 5/5/5 4/4/4 
f 4/4/4 5/5/5 5/5/5 
f 5/5/5 6/6/6 5/5/5 
f 5/5/5 6/6/6 7/7/7 
f 6/6/6 8/8/8 7/7/7 

