mtllib model_82.mtl
o model_82
v 20.307863235473633 15.041199684143066 4.217605113983154 
v 20.016576766967773 15.041199684143066 4.11153507232666 
v 20.307863235473633 16.576412200927734 4.217605113983154 
v 20.016576766967773 16.576412200927734 4.11153507232666 
v 19.641706466674805 15.041199684143066 4.01286506652832 
v 19.641706466674805 16.576412200927734 4.01286506652832 
v 19.20224380493164 15.041199684143066 3.9610633850097656 
v 19.20224380493164 16.576412200927734 3.9610633850097656 
v 18.739986419677734 15.041199684143066 3.9610633850097656 
v 18.739986419677734 16.576412200927734 3.9610633850097656 
v 18.30052375793457 15.041199684143066 4.01286506652832 
v 18.30052375793457 16.576412200927734 4.01286506652832 
v 17.92565155029297 15.041199684143066 4.11153507232666 
v 17.92565155029297 16.576412200927734 4.11153507232666 
v 17.634366989135742 16.576412200927734 4.217605113983154 
v 17.634366989135742 15.041199684143066 4.217605113983154 
vn 0.3424763083457947 0 -0.9395264387130737 
vn 0.29694145917892456 0 -0.9548956751823425 
vn 0.3424763083457947 0 -0.9395264387130737 
vn 0.29694145917892456 0 -0.9548956751823425 
vn 0.1867803931236267 0 -0.9824016690254211 
vn 0.1867803931236267 0 -0.9824016690254211 
vn 0.05677155405282974 0 -0.9983872175216675 
vn 0.05677155405282974 0 -0.9983872175216675 
vn -0.05664477497339249 0.003791921539232135 -0.9983872175216675 
vn -0.05664477497339249 0.003791921539232135 -0.9983872175216675 
vn -0.18674203753471375 0.003785469336435199 -0.9824016690254211 
vn -0.18674203753471375 0.003785469336435199 -0.9824016690254211 
vn -0.2969174385070801 0.0037766960449516773 -0.9548956751823425 
vn -0.2969174385070801 0.0037766960449516773 -0.9548956751823425 
vn -0.34245550632476807 0.003775085089728236 -0.9395264387130737 
vn -0.34245550632476807 0.003775085089728236 -0.9395264387130737 
vt 0.2222139984369278 0.1726599931716919 
vt 0.2511012852191925 0.1726599931716919 
vt 0.2222139984369278 0.2549416124820709 
vt 0.2511012852191925 0.2549416124820709 
vt 0.2870342433452606 0.1726599931716919 
vt 0.2870342433452606 0.2549416124820709 
vt 0.3282514810562134 0.1726599931716919 
vt 0.3282514810562134 0.2549416124820709 
vt 0.3712301254272461 0.1726599931716919 
vt 0.3712301254272461 0.2549416124820709 
vt 0.41244736313819885 0.1726599931716919 
vt 0.41244736313819885 0.2549416124820709 
vt 0.44838032126426697 0.1726599931716919 
vt 0.44838032126426697 0.2549416124820709 
vt 0.4625891149044037 0.2549416124820709 
vt 0.4625891149044037 0.1726599931716919 
s on 
f 1/1/1 2/2/2 3/3/3 
f 2/2/2 2/2/2 3/3/3 
f 3/3/3 2/2/2 4/4/4 
f 2/2/2 5/5/5 4/4/4 
f 4/4/4 5/5/5 6/6/6 
f 5/5/5 7/7/7 6/6/6 
f 6/6/6 7/7/7 8/8/8 
f 7/7/7 9/9/9 8/8/8 
f 8/8/8 9/9/9 10/10/10 
f 9/9/9 11/11/11 10/10/10 
f 10/10/10 11/11/11 12/12/12 
f 11/11/11 13/13/13 12/12/12 
f 12/12/12 13/13/13 14/14/14 
f 13/13/13 13/13/13 14/14/14 
f 14/14/14 13/13/13 15/15/15 
f 13/13/13 16/16/16 15/15/15 

