mtllib model_49.mtl
o model_49
v 1.1009045839309692 0.8806318044662476 -9.544629619995249e-7 
v 1.1009045839309692 0.25646379590034485 -9.544629619995249e-7 
v -1.1012500524520874 0.8806318044662476 -9.544629619995249e-7 
v -1.1012500524520874 0.25646379590034485 -9.544629619995249e-7 
v 1.1009045839309692 -0.27061140537261963 -9.544629619995249e-7 
v -1.1012500524520874 -0.27061140537261963 -9.544629619995249e-7 
v 1.1009045839309692 -0.8809090256690979 -9.544629619995249e-7 
v -1.1012500524520874 -0.8809090256690979 -9.544629619995249e-7 
vn -2.0682311115474694e-13 0 -1 
vn -2.0682311115474694e-13 0 -1 
vn -2.0682311115474694e-13 0 -1 
vn -2.0682311115474694e-13 0 -1 
vn -2.0682311115474694e-13 0 -1 
vn -2.0682311115474694e-13 0 -1 
vn -2.0682311115474694e-13 0 -1 
vn -2.0682311115474694e-13 0 -1 
vt 0.4905509948730469 0.4587266743183136 
vt 0.4905509948730469 0.4397382140159607 
vt 0.5432481169700623 0.4587266743183136 
vt 0.5432481169700623 0.4397382140159607 
vt 0.4905509948730469 0.42370349168777466 
vt 0.5432481169700623 0.42370349168777466 
vt 0.4905509948730469 0.40513700246810913 
vt 0.5432481169700623 0.40513700246810913 
s on 
f 1/1/1 2/2/2 3/3/3 
f 2/2/2 2/2/2 3/3/3 
f 3/3/3 2/2/2 4/4/4 
f 2/2/2 5/5/5 4/4/4 
f 4/4/4 5/5/5 6/6/6 
f 5/5/5 7/7/7 6/6/6 
f 6/6/6 7/7/7 8/8/8 

