mtllib model_90.mtl
o model_90
v -2.4054501056671143 1.0806360244750977 0.6277168393135071 
v 2.4054625034332275 1.0806360244750977 0.6277168393135071 
v -2.4054501056671143 -1.080649971961975 -0.627714991569519 
v 2.4054625034332275 -1.080649971961975 -0.627714991569519 
vn -5.177098238496637e-14 0.5006305575370789 -0.865661084651947 
vn -5.177098238496637e-14 0.5006305575370789 -0.865661084651947 
vn -5.177098238496637e-14 0.5006305575370789 -0.865661084651947 
vn -5.177098238496637e-14 0.5006305575370789 -0.865661084651947 
vt 0.9881125688552856 1.0320590734481812 
vt 0.01188770029693842 1.0320590734481812 
vt 0.9881125688552856 0.1241919994354248 
vt 0.01188770029693842 0.1241919994354248 
s on 
f 1/1/1 2/2/2 3/3/3 
f 2/2/2 4/4/4 3/3/3 

