mtllib model_27.mtl
o model_27
v -0.2604036331176758 0.6396278142929077 -0.14146719872951508 
v -0.2604036331176758 0.6396278142929077 0.14128099381923676 
v -0.2773360013961792 -0.6351609826087952 -0.14146719872951508 
v -0.2773360013961792 -0.6351609826087952 0.14128099381923676 
v 0.26026642322540283 0.74586021900177 -0.7807239890098572 
v -0.1164785772562027 0.6750385761260986 -0.4610956013202667 
v 0.23910097777843475 -0.7531970143318176 -0.7807239890098572 
v -0.13341094553470612 -0.6705718040466309 -0.4610956013202667 
v -0.1164785772562027 0.6750385761260986 0.4609093964099884 
v 0.26026642322540283 0.74586021900177 0.7805377840995789 
v -0.13341094553470612 -0.6705718040466309 0.4609093964099884 
v 0.23910097777843475 -0.7531970143318176 0.7805377840995789 
vn 0.9998835325241089 -0.015103200450539589 0.002184694167226553 
vn 0.9998835325241089 -0.015103200450539589 0.002184694167226553 
vn 0.9998835325241089 -0.015103200450539589 0.002184694167226553 
vn 0.9998835325241089 -0.015103200450539589 0.002184694167226553 
vn 0.6567664742469788 -0.007544363848865032 0.7540562748908997 
vn 0.6567664742469788 -0.007544363848865032 0.7540562748908997 
vn 0.6567664742469788 -0.007544363848865032 0.7540562748908997 
vn 0.6567664742469788 -0.007544363848865032 0.7540562748908997 
vn 0.6567663550376892 -0.0075581809505820274 -0.7540562748908997 
vn 0.6567663550376892 -0.0075581809505820274 -0.7540562748908997 
vn 0.6567663550376892 -0.0075581809505820274 -0.7540562748908997 
vn 0.6567663550376892 -0.0075581809505820274 -0.7540562748908997 
vt 0.8653979897499084 0.5133993625640869 
vt 0.8661484122276306 0.5133993625640869 
vt 0.8653979897499084 0.5184916257858276 
vt 0.8661484122276306 0.5184916257858276 
vt 0.8729022741317749 0.5190681219100952 
vt 0.8709238767623901 0.5187318325042725 
vt 0.8729022741317749 0.5131111145019531 
vt 0.8709238767623901 0.5133993625640869 
vt 0.867444634437561 0.513303279876709 
vt 0.8694230318069458 0.5129669904708862 
vt 0.867444634437561 0.5186357498168945 
vt 0.8694230318069458 0.5189239978790283 
s on 
f 1/1/1 2/2/2 3/3/3 
f 2/2/2 4/4/4 3/3/3 
f 3/3/3 4/4/4 4/4/4 
f 4/4/4 5/5/5 4/4/4 
f 4/4/4 5/5/5 5/5/5 
f 5/5/5 6/6/6 5/5/5 
f 5/5/5 6/6/6 7/7/7 
f 6/6/6 8/8/8 7/7/7 
f 7/7/7 8/8/8 8/8/8 
f 8/8/8 9/9/9 8/8/8 
f 8/8/8 9/9/9 9/9/9 
f 9/9/9 10/10/10 9/9/9 
f 9/9/9 10/10/10 11/11/11 
f 10/10/10 12/12/12 11/11/11 

