mtllib model_73.mtl
o model_73
v 0.5970966219902039 0.5878012776374817 0.7087363004684448 
v -0.5973230004310608 0.5878012776374817 0.7087363004684448 
v 0.5970966219902039 -0.5879989862442017 0.7087363004684448 
v -0.5973230004310608 -0.5879989862442017 0.7087363004684448 
v 0.7087246179580688 0.5878012776374817 -0.5973230004310608 
v 0.7087246179580688 0.5878012776374817 0.5971072912216187 
v 0.7087246179580688 -0.5879989862442017 -0.5973230004310608 
v 0.7087246179580688 -0.5879989862442017 0.5971072912216187 
v -0.7089509963989258 0.5878012776374817 0.5971072912216187 
v -0.7089509963989258 0.5878012776374817 -0.5973230004310608 
v -0.7089509963989258 -0.5879989862442017 0.5971072912216187 
v -0.7089509963989258 -0.5879989862442017 -0.5973230004310608 
v -0.5973230004310608 0.5878012776374817 -0.708952009677887 
v 0.5970966219902039 0.5878012776374817 -0.708952009677887 
v -0.5973230004310608 -0.5879989862442017 -0.708952009677887 
v 0.5970966219902039 -0.5879989862442017 -0.708952009677887 
v -0.5973230004310608 0.5878012776374817 0.7087363004684448 
v -0.7089509963989258 0.5878012776374817 0.5971072912216187 
v -0.5973230004310608 -0.5879989862442017 0.7087363004684448 
v -0.7089509963989258 -0.5879989862442017 0.5971072912216187 
v -0.5973230004310608 -0.5879989862442017 -0.708952009677887 
v -0.7089509963989258 -0.5879989862442017 -0.5973230004310608 
v -0.5973230004310608 0.5878012776374817 -0.708952009677887 
v -0.7089509963989258 0.5878012776374817 -0.5973230004310608 
v 0.7087246179580688 -0.5879989862442017 -0.5973230004310608 
v 0.5970966219902039 -0.5879989862442017 -0.708952009677887 
v 0.7087246179580688 0.5878012776374817 -0.5973230004310608 
v 0.5970966219902039 0.5878012776374817 -0.708952009677887 
v 0.5970966219902039 -0.5879989862442017 0.7087363004684448 
v 0.7087246179580688 -0.5879989862442017 0.5971072912216187 
v 0.5970966219902039 0.5878012776374817 0.7087363004684448 
v 0.7087246179580688 0.5878012776374817 0.5971072912216187 
v -0.49685779213905334 -0.5879989862442017 0.5412927865982056 
v -0.5973230004310608 -0.5879989862442017 0.7087363004684448 
v -0.5415089726448059 -0.5879989862442017 0.4966411888599396 
v -0.7089509963989258 -0.5879989862442017 0.5971072912216187 
v -0.5415089726448059 -0.5879989862442017 -0.4968568980693817 
v -0.7089509963989258 -0.5879989862442017 -0.5973230004310608 
v -0.49685779213905334 -0.5879989862442017 -0.5415084958076477 
v -0.5973230004310608 -0.5879989862442017 -0.708952009677887 
v 0.4966314136981964 -0.5879989862442017 -0.5415084958076477 
v 0.5970966219902039 -0.5879989862442017 -0.708952009677887 
v 0.541282594203949 -0.5879989862442017 -0.4968568980693817 
v 0.7087246179580688 -0.5879989862442017 -0.5973230004310608 
v 0.541282594203949 -0.5879989862442017 0.4966411888599396 
v 0.7087246179580688 -0.5879989862442017 0.5971072912216187 
v 0.4966314136981964 -0.5879989862442017 0.5412927865982056 
v 0.5970966219902039 -0.5879989862442017 0.7087363004684448 
v -0.49685779213905334 -0.5879989862442017 0.5412927865982056 
v -0.5973230004310608 -0.5879989862442017 0.7087363004684448 
v -0.5973230004310608 0.5878012776374817 0.7087363004684448 
v -0.49685779213905334 0.5878012776374817 0.5412927865982056 
v -0.7089509963989258 0.5878012776374817 0.5971072912216187 
v -0.5415089726448059 0.5878012776374817 0.4966411888599396 
v -0.7089509963989258 0.5878012776374817 -0.5973230004310608 
v -0.5415089726448059 0.5878012776374817 -0.4968568980693817 
v -0.5973230004310608 0.5878012776374817 -0.708952009677887 
v -0.49685779213905334 0.5878012776374817 -0.5415084958076477 
v 0.5970966219902039 0.5878012776374817 -0.708952009677887 
v 0.4966314136981964 0.5878012776374817 -0.5415084958076477 
v 0.7087246179580688 0.5878012776374817 -0.5973230004310608 
v 0.541282594203949 0.5878012776374817 -0.4968568980693817 
v 0.7087246179580688 0.5878012776374817 0.5971072912216187 
v 0.541282594203949 0.5878012776374817 0.4966411888599396 
v 0.5970966219902039 0.5878012776374817 0.7087363004684448 
v 0.4966314136981964 0.5878012776374817 0.5412927865982056 
v -0.5973230004310608 0.5878012776374817 0.7087363004684448 
v -0.49685779213905334 0.5878012776374817 0.5412927865982056 
vn 0 0 1 
vn 0 0 1 
vn 0 0 1 
vn 0 0 1 
vn 0.999997615814209 0 0.002184694167226553 
vn 0.999997615814209 0 0.002184694167226553 
vn 0.999997615814209 0 0.002184694167226553 
vn 0.999997615814209 0 0.002184694167226553 
vn -0.999997615814209 -2.0682260971124217e-13 0.002184694167226553 
vn -0.999997615814209 -2.0682260971124217e-13 0.002184694167226553 
vn -0.999997615814209 -2.0682260971124217e-13 0.002184694167226553 
vn -0.999997615814209 -2.0682260971124217e-13 0.002184694167226553 
vn -2.0682311115474694e-13 0 -1 
vn -2.0682311115474694e-13 0 -1 
vn -2.0682311115474694e-13 0 -1 
vn -2.0682311115474694e-13 0 -1 
vn -0.7078787684440613 -1.4640568759497624e-13 0.7063339352607727 
vn -0.7078787684440613 -1.4640568759497624e-13 0.7063339352607727 
vn -0.7078787684440613 -1.4640568759497624e-13 0.7063339352607727 
vn -0.7078787684440613 -1.4640568759497624e-13 0.7063339352607727 
vn -0.7078686952590942 0.0037756471429020166 -0.7063339352607727 
vn -0.7078686952590942 0.0037756471429020166 -0.7063339352607727 
vn -0.7078686952590942 0.0037756471429020166 -0.7063339352607727 
vn -0.7078686952590942 0.0037756471429020166 -0.7063339352607727 
vn 0.7078787684440613 0 -0.7063339352607727 
vn 0.7078787684440613 0 -0.7063339352607727 
vn 0.7078787684440613 0 -0.7063339352607727 
vn 0.7078787684440613 0 -0.7063339352607727 
vn 0.7078787684440613 0 0.7063339352607727 
vn 0.7078787684440613 0 0.7063339352607727 
vn 0.7078787684440613 0 0.7063339352607727 
vn 0.7078787684440613 0 0.7063339352607727 
vn 3.097898456858039e-13 -0.999997615814209 0.002184694167226553 
vn 3.097898456858039e-13 -0.999997615814209 0.002184694167226553 
vn 3.097898456858039e-13 -0.999997615814209 0.002184694167226553 
vn 3.097898456858039e-13 -0.999997615814209 0.002184694167226553 
vn 3.097898456858039e-13 -0.999997615814209 0.002184694167226553 
vn 3.097898456858039e-13 -0.999997615814209 0.002184694167226553 
vn 3.097898456858039e-13 -0.999997615814209 0.002184694167226553 
vn 3.097898456858039e-13 -0.999997615814209 0.002184694167226553 
vn 3.097898456858039e-13 -0.999997615814209 0.002184694167226553 
vn 3.097898456858039e-13 -0.999997615814209 0.002184694167226553 
vn 3.097898456858039e-13 -0.999997615814209 0.002184694167226553 
vn 3.097898456858039e-13 -0.999997615814209 0.002184694167226553 
vn 3.097898456858039e-13 -0.999997615814209 0.002184694167226553 
vn 3.097898456858039e-13 -0.999997615814209 0.002184694167226553 
vn 3.097898456858039e-13 -0.999997615814209 0.002184694167226553 
vn 3.097898456858039e-13 -0.999997615814209 0.002184694167226553 
vn 3.097898456858039e-13 -0.999997615814209 0.002184694167226553 
vn 3.097898456858039e-13 -0.999997615814209 0.002184694167226553 
vn -1.0341130485562108e-13 0.999997615814209 0.002184694167226553 
vn -1.0341130485562108e-13 0.999997615814209 0.002184694167226553 
vn -1.0341130485562108e-13 0.999997615814209 0.002184694167226553 
vn -1.0341130485562108e-13 0.999997615814209 0.002184694167226553 
vn -1.0341130485562108e-13 0.999997615814209 0.002184694167226553 
vn -1.0341130485562108e-13 0.999997615814209 0.002184694167226553 
vn -1.0341130485562108e-13 0.999997615814209 0.002184694167226553 
vn -1.0341130485562108e-13 0.999997615814209 0.002184694167226553 
vn -1.0341130485562108e-13 0.999997615814209 0.002184694167226553 
vn -1.0341130485562108e-13 0.999997615814209 0.002184694167226553 
vn -1.0341130485562108e-13 0.999997615814209 0.002184694167226553 
vn -1.0341130485562108e-13 0.999997615814209 0.002184694167226553 
vn -1.0341130485562108e-13 0.999997615814209 0.002184694167226553 
vn -1.0341130485562108e-13 0.999997615814209 0.002184694167226553 
vn -1.0341130485562108e-13 0.999997615814209 0.002184694167226553 
vn -1.0341130485562108e-13 0.999997615814209 0.002184694167226553 
vn -1.0341130485562108e-13 0.999997615814209 0.002184694167226553 
vn -1.0341130485562108e-13 0.999997615814209 0.002184694167226553 
vt 0.6525774002075195 0.1266508400440216 
vt 0.6220758557319641 0.13443785905838013 
vt 0.6502352952957153 0.05648016929626465 
vt 0.6202239990234375 0.060461174696683884 
vt 0.674799919128418 0.12511968612670898 
vt 0.6548105478286743 0.12437598407268524 
vt 0.6736016869544983 0.055342741310596466 
vt 0.6529586911201477 0.0573551170527935 
vt 0.7255086898803711 0.12441972643136978 
vt 0.7000181674957275 0.12210112065076828 
vt 0.7273606061935425 0.058492545038461685 
vt 0.6984385848045349 0.05875502899289131 
vt 0.6977850198745728 0.12240735441446304 
vt 0.6768696904182434 0.12555715441703796 
vt 0.6962599158287048 0.05840505287051201 
vt 0.6756169199943542 0.054949015378952026 
vt 0.7295392751693726 0.12748204171657562 
vt 0.7255086898803711 0.12441972643136978 
vt 0.7317179441452026 0.05683014914393425 
vt 0.7273606061935425 0.058492545038461685 
vt 0.6962599158287048 0.05840505287051201 
vt 0.6984385848045349 0.05875502899289131 
vt 0.6977850198745728 0.12240735441446304 
vt 0.7000181674957275 0.12210112065076828 
vt 0.6736016869544983 0.055342741310596466 
vt 0.6756169199943542 0.054949015378952026 
vt 0.674799919128418 0.12511968612670898 
vt 0.6768696904182434 0.12555715441703796 
vt 0.6502352952957153 0.05648016929626465 
vt 0.6529586911201477 0.0573551170527935 
vt 0.6525774002075195 0.1266508400440216 
vt 0.6548105478286743 0.12437598407268524 
vt 0.7311732769012451 0.04908687621355057 
vt 0.7317179441452026 0.05683014914393425 
vt 0.7295937538146973 0.05193044990301132 
vt 0.7273606061935425 0.058492545038461685 
vt 0.6988743543624878 0.04978683218359947 
vt 0.6984385848045349 0.05875502899289131 
vt 0.6968045830726624 0.04860565811395645 
vt 0.6962599158287048 0.05840505287051201 
vt 0.6753445863723755 0.04790569841861725 
vt 0.6756169199943542 0.054949015378952026 
vt 0.6737650632858276 0.048518162220716476 
vt 0.6736016869544983 0.055342741310596466 
vt 0.6539390683174133 0.051842957735061646 
vt 0.6529586911201477 0.0573551170527935 
vt 0.6520872116088867 0.0507492758333683 
vt 0.6502352952957153 0.05648016929626465 
vt 0.620550811290741 0.04939310997724533 
vt 0.6202239990234375 0.060461174696683884 
vt 0.7295392751693726 0.12748204171657562 
vt 0.7269248366355896 0.13728143274784088 
vt 0.7255086898803711 0.12441972643136978 
vt 0.7257266044616699 0.13343167304992676 
vt 0.7000181674957275 0.12210112065076828 
vt 0.7000726461410522 0.1341753751039505 
vt 0.6977850198745728 0.12240735441446304 
vt 0.6983296871185303 0.13448160886764526 
vt 0.6768696904182434 0.12555715441703796 
vt 0.6773054003715515 0.13723768293857574 
vt 0.674799919128418 0.12511968612670898 
vt 0.6756169199943542 0.136493980884552 
vt 0.6548105478286743 0.12437598407268524 
vt 0.65573650598526 0.13229423761367798 
vt 0.6525774002075195 0.1266508400440216 
vt 0.6541569232940674 0.13281920552253723 
vt 0.6220758557319641 0.13443785905838013 
vt 0.6232196688652039 0.13745641708374023 
s on 
f 1/1/1 2/2/2 3/3/3 
f 2/2/2 4/4/4 3/3/3 
f 3/3/3 4/4/4 4/4/4 
f 4/4/4 5/5/5 4/4/4 
f 4/4/4 5/5/5 5/5/5 
f 5/5/5 6/6/6 5/5/5 
f 5/5/5 6/6/6 7/7/7 
f 6/6/6 8/8/8 7/7/7 
f 7/7/7 8/8/8 8/8/8 
f 8/8/8 9/9/9 8/8/8 
f 8/8/8 9/9/9 9/9/9 
f 9/9/9 10/10/10 9/9/9 
f 9/9/9 10/10/10 11/11/11 
f 10/10/10 12/12/12 11/11/11 
f 11/11/11 12/12/12 12/12/12 
f 12/12/12 13/13/13 12/12/12 
f 12/12/12 13/13/13 13/13/13 
f 13/13/13 14/14/14 13/13/13 
f 13/13/13 14/14/14 15/15/15 
f 14/14/14 16/16/16 15/15/15 
f 15/15/15 16/16/16 16/16/16 
f 16/16/16 17/17/17 16/16/16 
f 16/16/16 17/17/17 17/17/17 
f 17/17/17 18/18/18 17/17/17 
f 17/17/17 18/18/18 19/19/19 
f 18/18/18 20/20/20 19/19/19 
f 19/19/19 20/20/20 20/20/20 
f 20/20/20 21/21/21 20/20/20 
f 20/20/20 21/21/21 21/21/21 
f 21/21/21 22/22/22 21/21/21 
f 21/21/21 22/22/22 23/23/23 
f 22/22/22 24/24/24 23/23/23 
f 23/23/23 24/24/24 24/24/24 
f 24/24/24 25/25/25 24/24/24 
f 24/24/24 25/25/25 25/25/25 
f 25/25/25 26/26/26 25/25/25 
f 25/25/25 26/26/26 27/27/27 
f 26/26/26 28/28/28 27/27/27 
f 27/27/27 28/28/28 28/28/28 
f 28/28/28 29/29/29 28/28/28 
f 28/28/28 29/29/29 29/29/29 
f 29/29/29 30/30/30 29/29/29 
f 29/29/29 30/30/30 31/31/31 
f 30/30/30 32/32/32 31/31/31 
f 31/31/31 32/32/32 32/32/32 
f 32/32/32 33/33/33 32/32/32 
f 32/32/32 33/33/33 33/33/33 
f 33/33/33 34/34/34 33/33/33 
f 33/33/33 34/34/34 35/35/35 
f 34/34/34 36/36/36 35/35/35 
f 35/35/35 36/36/36 37/37/37 
f 36/36/36 38/38/38 37/37/37 
f 37/37/37 38/38/38 39/39/39 
f 38/38/38 40/40/40 39/39/39 
f 39/39/39 40/40/40 41/41/41 
f 40/40/40 42/42/42 41/41/41 
f 41/41/41 42/42/42 43/43/43 
f 42/42/42 44/44/44 43/43/43 
f 43/43/43 44/44/44 45/45/45 
f 44/44/44 46/46/46 45/45/45 
f 45/45/45 46/46/46 47/47/47 
f 46/46/46 48/48/48 47/47/47 
f 47/47/47 48/48/48 49/49/49 
f 48/48/48 50/50/50 49/49/49 
f 49/49/49 50/50/50 50/50/50 
f 50/50/50 51/51/51 50/50/50 
f 50/50/50 51/51/51 51/51/51 
f 51/51/51 52/52/52 51/51/51 
f 51/51/51 52/52/52 53/53/53 
f 52/52/52 54/54/54 53/53/53 
f 53/53/53 54/54/54 55/55/55 
f 54/54/54 56/56/56 55/55/55 
f 55/55/55 56/56/56 57/57/57 
f 56/56/56 58/58/58 57/57/57 
f 57/57/57 58/58/58 59/59/59 
f 58/58/58 60/60/60 59/59/59 
f 59/59/59 60/60/60 61/61/61 
f 60/60/60 62/62/62 61/61/61 
f 61/61/61 62/62/62 63/63/63 
f 62/62/62 64/64/64 63/63/63 
f 63/63/63 64/64/64 65/65/65 
f 64/64/64 66/66/66 65/65/65 
f 65/65/65 66/66/66 67/67/67 
f 66/66/66 68/68/68 67/67/67 

