mtllib model_33.mtl
o model_33
v 16.08300018310547 4.2255024909973145 3.0577378273010254 
v 16.08300018310547 7.5886383056640625 3.0577378273010254 
v 16.08300018310547 4.2255024909973145 -2.204826593399048 
v 16.08300018310547 7.5886383056640625 -2.204826593399048 
vn -0.999997615814209 -2.0682260971124217e-13 0.002184694167226553 
vn -0.999997615814209 -2.0682260971124217e-13 0.002184694167226553 
vn -0.999997615814209 -2.0682260971124217e-13 0.002184694167226553 
vn -0.999997615814209 -2.0682260971124217e-13 0.002184694167226553 
vt 0.38799235224723816 0.7611989974975586 
vt 0.38799235224723816 0.8087854981422424 
vt 0.29720398783683777 0.7611989974975586 
vt 0.29720398783683777 0.8087854981422424 
s on 
f 1/1/1 2/2/2 3/3/3 
f 2/2/2 4/4/4 3/3/3 

