mtllib model_16.mtl
o model_16
v -0.09586309641599655 0.12505464255809784 0.0007482260116375983 
v 0.08116219937801361 0.12505464255809784 0.0007482260116375983 
v -0.09586309641599655 -0.0977948009967804 0.0007482260116375983 
v 0.08116219937801361 -0.0977948009967804 0.0007482260116375983 
vn -2.0682311115474694e-13 0 -1 
vn -2.0682311115474694e-13 0 -1 
vn -2.0682311115474694e-13 0 -1 
vn -2.0682311115474694e-13 0 -1 
vt 0.8162832856178284 0.5116569995880127 
vt 0.8162832856178284 0.5172504186630249 
vt 0.8125039935112 0.5116569995880127 
vt 0.8125039935112 0.5172504186630249 
s on 
f 1/1/1 2/2/2 3/3/3 
f 2/2/2 4/4/4 3/3/3 

