mtllib model_56.mtl
o model_56
v 0.10895437747240067 0 0.3875528573989868 
v 0.10895437747240067 1.3336905241012573 0.3875528573989868 
v -0.10895492136478424 0 -0.3875510096549988 
v -0.10895492136478424 1.3336905241012573 -0.3875510096549988 
v -0.39535000920295715 1.3336905241012573 0.07018750160932541 
v 0.3953494727611542 1.3336905241012573 -0.07018563896417618 
v -0.39535000920295715 0 0.07018750160932541 
v 0.3953494727611542 0 -0.07018563896417618 
vn -0.9641047716140747 0.0037719053216278553 0.26549527049064636 
vn -0.9641047716140747 0.0037719053216278553 0.26549527049064636 
vn -0.9641047716140747 0.0037719053216278553 0.26549527049064636 
vn -0.9641047716140747 0.0037719053216278553 0.26549527049064636 
vn -0.17818838357925415 -3.685347518692442e-14 -0.9839963912963867 
vn -0.17818838357925415 -3.685347518692442e-14 -0.9839963912963867 
vn -0.17818838357925415 -3.685347518692442e-14 -0.9839963912963867 
vn -0.17818838357925415 -3.685347518692442e-14 -0.9839963912963867 
vt 0.7875815033912659 0.5121909976005554 
vt 0.7875815033912659 0.5617601275444031 
vt 0.7163519859313965 0.5121909976005554 
vt 0.7163519859313965 0.5617601275444031 
vt 0.7163519859313965 0.5617601275444031 
vt 0.7875815033912659 0.5617601275444031 
vt 0.7163519859313965 0.5121909976005554 
vt 0.7875815033912659 0.5121909976005554 
s on 
f 1/1/1 2/2/2 3/3/3 
f 2/2/2 4/4/4 3/3/3 
f 3/3/3 4/4/4 4/4/4 
f 4/4/4 5/5/5 4/4/4 
f 4/4/4 5/5/5 5/5/5 
f 5/5/5 6/6/6 5/5/5 
f 5/5/5 6/6/6 7/7/7 
f 6/6/6 8/8/8 7/7/7 

