mtllib model_44.mtl
o model_44
v 0.29530900716781616 13.558859825134277 11.003899574279785 
v 0.29530900716781616 13.558859825134277 13.438998222351074 
v 0.29530900716781616 0 11.003899574279785 
v 0.29530900716781616 0 13.438998222351074 
v 20.704971313476562 20.25853157043457 13.438998222351074 
v 7.6877851486206055 20.099016189575195 13.438998222351074 
v 20.704971313476562 20.25853157043457 11.003899574279785 
v 7.6877851486206055 20.099016189575195 11.003899574279785 
v 0.29530900716781616 13.558859825134277 13.438998222351074 
v 0.29530900716781616 13.558859825134277 11.003899574279785 
vn 0.999997615814209 0 0.002184694167226553 
vn 0.999997615814209 0 0.002184694167226553 
vn 0.999997615814209 0 0.002184694167226553 
vn 0.999997615814209 0 0.002184694167226553 
vn 0.007551815826445818 -0.9999691247940063 0.002184694167226553 
vn 0.20249100029468536 -0.9792816638946533 0.002184694167226553 
vn 0.007551815826445818 -0.9999691247940063 0.002184694167226553 
vn 0.4309644401073456 -0.9023662805557251 0.002184694167226553 
vn 0.6631211042404175 -0.7485089898109436 0.002184694167226553 
vn 0.6631211042404175 -0.7485089898109436 0.002184694167226553 
s on 
f 1//1 2//2 3//3 
f 2//2 4//4 3//3 
f 3//3 4//4 4//4 
f 4//4 5//5 4//4 
f 4//4 5//5 5//5 
f 5//5 6//6 5//5 
f 5//5 6//6 7//7 
f 6//6 8//8 7//7 
f 7//7 8//8 8//8 
f 8//8 6//6 8//8 
f 8//8 6//6 6//6 
f 6//6 9//9 6//6 
f 6//6 9//9 8//8 
f 9//9 10//10 8//8 

