mtllib model_0.mtl
o model_0
v 10.141741752624512 16.6978816986084 8.627599716186523 
v 10.34012508392334 16.67140007019043 10.180822372436523 
v 9.985870361328125 17.4923038482666 8.627599716186523 
v 10.155912399291992 17.426103591918945 9.9362211227417 
v 11.07697582244873 18.180805206298828 9.9362211227417 
v 10.155912399291992 17.426103591918945 9.9362211227417 
v 11.771315574645996 17.849796295166016 10.180822372436523 
v 10.34012508392334 16.67140007019043 10.180822372436523 
v 11.07697582244873 18.180805206298828 9.9362211227417 
v 11.034464836120605 18.352930068969727 8.627599716186523 
v 10.155912399291992 17.426103591918945 9.9362211227417 
v 9.985870361328125 17.4923038482666 8.627599716186523 
v 10.34012508392334 16.67140007019043 10.180822372436523 
v 10.141741752624512 16.6978816986084 8.627599716186523 
v 11.771315574645996 17.849796295166016 10.180822372436523 
v 11.78548526763916 18.0351619720459 8.627599716186523 
v 11.78548526763916 18.0351619720459 8.627599716186523 
v 10.141741752624512 16.6978816986084 8.627599716186523 
v 11.034464836120605 18.352930068969727 8.627599716186523 
v 9.985870361328125 17.4923038482666 8.627599716186523 
v 11.771315574645996 17.849796295166016 10.180822372436523 
v 11.78548526763916 18.0351619720459 8.627599716186523 
v 11.07697582244873 18.180805206298828 9.9362211227417 
v 11.034464836120605 18.352930068969727 8.627599716186523 
vn -0.9732396006584167 -0.198638916015625 0.11553031951189041 
vn -0.9732396006584167 -0.198638916015625 0.11553031951189041 
vn -0.9732396006584167 -0.198638916015625 0.11553031951189041 
vn -0.9721869230270386 -0.20613010227680206 0.1111890971660614 
vn -0.20617985725402832 0.2525244653224945 0.9453682899475098 
vn -0.20617985725402832 0.2525244653224945 0.9453682899475098 
vn -0.20617985725402832 0.2525244653224945 0.9453682899475098 
vn -0.20617985725402832 0.2525244653224945 0.9453682899475098 
vn -0.6307308077812195 0.7666876912117004 0.11986933648586273 
vn -0.6307308077812195 0.7666876912117004 0.11986933648586273 
vn -0.6307308077812195 0.7666876912117004 0.11986933648586273 
vn -0.6307308077812195 0.7666876912117004 0.11986933648586273 
vn 0.6293850541114807 -0.7719278931617737 -0.08945280313491821 
vn 0.6293850541114807 -0.7719278931617737 -0.08945280313491821 
vn 0.6293850541114807 -0.7719278931617737 -0.08945280313491821 
vn 0.6293850541114807 -0.7719278931617737 -0.08945280313491821 
vn -2.0682311115474694e-13 0 -1 
vn -2.0682311115474694e-13 0 -1 
vn -2.0682311115474694e-13 0 -1 
vn -2.0682311115474694e-13 0 -1 
vn 0.38751649856567383 0.914594829082489 0.11553031951189041 
vn 0.38751649856567383 0.914594829082489 0.11553031951189041 
vn 0.38751649856567383 0.914594829082489 0.11553031951189041 
vn 0.380746454000473 0.9179701209068298 0.1111890971660614 
s on 
f 1//1 2//2 3//3 
f 2//2 4//4 3//3 
f 3//3 4//4 4//4 
f 4//4 5//5 4//4 
f 4//4 5//5 5//5 
f 5//5 6//6 5//5 
f 5//5 6//6 7//7 
f 6//6 8//8 7//7 
f 7//7 8//8 8//8 
f 8//8 9//9 8//8 
f 8//8 9//9 9//9 
f 9//9 10//10 9//9 
f 9//9 10//10 11//11 
f 10//10 12//12 11//11 
f 11//11 12//12 12//12 
f 12//12 13//13 12//12 
f 12//12 13//13 13//13 
f 13//13 14//14 13//13 
f 13//13 14//14 15//15 
f 14//14 16//16 15//15 
f 15//15 16//16 16//16 
f 16//16 17//17 16//16 
f 16//16 17//17 17//17 
f 17//17 18//18 17//17 
f 17//17 18//18 19//19 
f 18//18 20//20 19//19 
f 19//19 20//20 20//20 
f 20//20 21//21 20//20 
f 20//20 21//21 21//21 
f 21//21 22//22 21//21 
f 21//21 22//22 23//23 
f 22//22 24//24 23//23 

